<svg xmlns="http://www.w3.org/2000/svg" xml:space="preserve" width="163.839" height="163.84" style="shape-rendering:geometricPrecision;text-rendering:geometricPrecision;image-rendering:optimizeQuality;fill-rule:evenodd;clip-rule:evenodd" viewBox="0 0 43.349 43.349"><defs><style>.fil3{fill:#0071bd}.fil2{fill:#ef7900}.fil0,.fil1{fill:#0071bd;fill-rule:nonzero}.fil1{fill:#ef7900}</style></defs><g id="Слой_x0020_1"><g id="_379524952"><path id="_126089952" class="fil0" d="M4.77 24.752h.817l-.078.382H4.69l-.156.752h-.457l.41-1.965h1.407l-.08.381h-.95l-.094.45zm1.79 1.134.409-1.965h.936c.2 0 .35.045.446.134a.46.46 0 0 1 .145.357c0 .132-.04.254-.117.366a.489.489 0 0 1-.316.21l-.003.008c.071.024.123.059.154.102a.264.264 0 0 1 .048.16.593.593 0 0 1-.008.085 3.885 3.885 0 0 1-.034.192c-.012.064-.02.111-.024.143a.735.735 0 0 0-.006.081c0 .019.002.038.007.059a.37.37 0 0 0 .025.068h-.464a.36.36 0 0 1-.03-.13.71.71 0 0 1 .006-.084l.021-.117c.013-.057.022-.102.027-.134a.497.497 0 0 0 .007-.08.15.15 0 0 0-.057-.125c-.037-.029-.11-.043-.214-.043h-.355l-.148.713H6.56zm.784-1.584-.102.49h.413c.106 0 .191-.024.255-.072a.23.23 0 0 0 .095-.193c0-.073-.022-.129-.067-.167-.045-.039-.116-.058-.214-.058h-.38zm2.998 1.638c-.276 0-.489-.072-.638-.216-.15-.144-.224-.342-.224-.592 0-.345.106-.642.318-.892.212-.25.494-.375.848-.375.27 0 .478.071.626.214.148.143.223.342.223.598 0 .346-.104.643-.312.891-.207.248-.488.372-.84.372zm.038-.38c.191 0 .34-.081.45-.245.11-.163.165-.355.165-.574 0-.173-.035-.3-.105-.378a.38.38 0 0 0-.298-.117c-.19 0-.34.081-.449.244a1.012 1.012 0 0 0-.163.576c0 .167.035.291.105.373.07.081.169.122.295.122zm2.98.326-.176-1.426h-.007l-.293 1.426h-.456l.41-1.965h.66l.168 1.35.697-1.35h.68l-.409 1.965h-.456l.303-1.426h-.008l-.74 1.426h-.373zm4.214-1.965h.456l-.241 1.145a1.791 1.791 0 0 0-.027.145.577.577 0 0 0-.005.07c0 .087.03.156.088.206.058.049.139.074.24.074.138 0 .241-.04.31-.12.07-.08.122-.205.157-.375l.24-1.145h.456l-.253 1.221c-.061.295-.167.501-.318.62-.15.119-.355.178-.613.178-.263 0-.457-.05-.582-.152-.125-.101-.187-.251-.187-.45 0-.025.001-.052.005-.08.003-.028.016-.092.036-.192l.238-1.145zm3.182.83.892-.83h.575l-.949.868.567 1.097h-.52l-.404-.85-.267.227-.13.623h-.456l.41-1.965h.454l-.172.83zm2.129 1.135.409-1.965h.936c.2 0 .349.045.446.134a.46.46 0 0 1 .145.357c0 .132-.04.254-.118.366a.49.49 0 0 1-.316.21l-.002.008c.07.024.122.059.154.102a.263.263 0 0 1 .048.16.593.593 0 0 1-.008.085 4.151 4.151 0 0 1-.035.192 3.41 3.41 0 0 0-.024.143.738.738 0 0 0-.006.081.269.269 0 0 0 .033.127h-.464a.36.36 0 0 1-.03-.13.71.71 0 0 1 .006-.084c.004-.031.011-.07.021-.117.013-.057.021-.102.026-.134a.497.497 0 0 0 .008-.08.15.15 0 0 0-.057-.125c-.038-.029-.11-.043-.215-.043h-.354l-.149.713h-.455zm.783-1.584-.101.49h.413c.106 0 .19-.024.254-.072a.23.23 0 0 0 .096-.193c0-.073-.023-.129-.067-.167-.045-.039-.116-.058-.214-.058h-.38zm2.95-.38h.46l.317 1.964h-.474l-.044-.368h-.71l-.196.368h-.489l1.135-1.965zm-.271 1.262h.49l-.09-.749-.4.749zm2.494-1.263h.455l-.41 1.965h-.455l.41-1.965zm2.009.724h-.006l-.252 1.24h-.456l.41-1.964h.444l.534 1.235h.008l.248-1.235h.457l-.41 1.965h-.447l-.53-1.24zm2.637-.724h.455l-.41 1.965h-.456l.41-1.965zm2.198 0h.461l.316 1.965h-.473l-.045-.368h-.71l-.196.368h-.488l1.135-1.965zm-.271 1.263h.49l-.09-.749-.4.749zm2.798-.539h-.006l-.252 1.24h-.456l.41-1.964h.444l.534 1.235h.009l.248-1.235h.456l-.41 1.965h-.447l-.53-1.24z"/><path id="_126088584" class="fil0" d="M15.797 19.59H17.3c.334 0 .585.076.75.23.167.153.25.373.25.662 0 .38-.126.684-.38.913-.253.23-.616.346-1.09.346h-.724l-.233 1.12h-.76l.684-3.271zm.624.634-.182.88h.59c.216 0 .378-.043.487-.128a.42.42 0 0 0 .164-.352c0-.132-.036-.232-.107-.3-.07-.066-.191-.1-.361-.1h-.59zm2.465 2.637.681-3.271h1.56c.334 0 .58.074.742.223.161.148.242.346.242.594 0 .22-.066.423-.196.61a.815.815 0 0 1-.526.349l-.004.014c.118.04.203.098.256.17.053.074.08.162.08.265a.993.993 0 0 1-.013.143 6.774 6.774 0 0 1-.058.319c-.02.107-.033.186-.04.238-.006.053-.01.098-.01.136 0 .031.005.063.013.097a.623.623 0 0 0 .042.113h-.773a.591.591 0 0 1-.05-.214c0-.043.004-.09.01-.142.007-.051.019-.116.035-.194.021-.096.036-.17.044-.223a.844.844 0 0 0 .012-.133.248.248 0 0 0-.094-.208c-.063-.048-.183-.073-.358-.073h-.59l-.248 1.187h-.757zm1.305-2.637-.169.815h.688c.177 0 .318-.04.424-.118a.382.382 0 0 0 .16-.322c0-.122-.038-.215-.113-.279-.075-.064-.193-.096-.356-.096h-.634zm4.195 2.728c-.46 0-.814-.12-1.063-.36-.248-.24-.373-.57-.373-.986 0-.574.176-1.07.53-1.485.352-.416.823-.624 1.412-.624.448 0 .795.118 1.043.356.247.237.37.568.37.995 0 .576-.173 1.071-.519 1.485-.346.413-.812.62-1.4.62zm.063-.632a.856.856 0 0 0 .75-.409c.182-.272.273-.591.273-.956 0-.289-.058-.498-.174-.629-.117-.13-.282-.195-.497-.195a.852.852 0 0 0-.747.407c-.18.27-.271.59-.271.958 0 .278.058.486.174.621.117.136.281.203.492.203zm2.622-.664h.757l-.027.13a2.041 2.041 0 0 0-.023.128.478.478 0 0 0-.004.054c0 .112.024.198.073.26.049.061.127.092.235.092.135 0 .235-.036.301-.109.066-.071.12-.213.164-.425l.46-2.196h.76l-.437 2.088c-.104.492-.255.827-.454 1.006-.198.179-.485.268-.86.268-.329 0-.576-.074-.741-.22-.165-.149-.247-.36-.247-.636 0-.047.004-.11.01-.19.009-.078.019-.162.033-.25zm4.426-.781h1.575l-.124.637h-1.583l-.147.714h1.826l-.13.635h-2.59l.683-3.271h2.548l-.128.634h-1.796l-.134.65zm4.834.834h.756a1.681 1.681 0 0 1-.562.894c-.28.233-.64.35-1.076.35-.452 0-.79-.124-1.015-.37-.225-.245-.338-.565-.338-.96 0-.573.16-1.07.48-1.493.32-.422.784-.633 1.387-.633.443 0 .773.084.989.252.216.168.324.407.324.715a2.153 2.153 0 0 1-.014.238h-.75l.003-.04.001-.058c0-.157-.052-.275-.155-.354-.103-.08-.245-.12-.425-.12-.306 0-.55.139-.733.414a1.697 1.697 0 0 0-.274.964c0 .275.055.479.166.612.11.133.257.2.44.2.191 0 .352-.05.483-.148.13-.1.235-.254.314-.463zm2.835-1.485h-.973l.137-.634h2.7l-.134.634h-.971l-.546 2.637h-.76l.547-2.637z"/><path id="_126089784" class="fil1" d="M4.024 27.121h9.717v.302H4.024z"/><path id="_125488768" class="fil1" d="M4.024 27.788h9.717v.302H4.024z"/><path id="_379528120" class="fil1" d="M29.665 27.121h9.718v.302h-9.718z"/><path id="_379531576" class="fil1" d="M29.665 27.788h9.718v.302h-9.718z"/><path id="_125439208" class="fil2" d="m18.54 34.635-7.985-5.749h2.71l6.373 4.614c1.462 1.156 2.225 1.162 3.589 0l6.372-4.614h2.71l-7.984 5.75c-2.45 1.817-3.335 1.817-5.786 0z"/><path id="_379521664" class="fil3" d="m20.014 33.071-5.298-3.605 2.744 2.208 1.371 1.086 1.033.773c1.12.868 2.016.868 3.136 0l1.033-.773 1.372-1.085 2.743-2.209-5.298 3.605c-.999.69-1.837.69-2.836 0z"/><path id="_379528336" class="fil1" d="M17.185 26.98h-.278l-.866 1.067-.399-1.067h-.277l-.276 1.25h.13l.253-1.149h.074l.42 1.15h.068l.927-1.15h.072l-.254 1.15h.13l.276-1.25zm.9 1.25h-.13l.275-1.25h.13l-.276 1.25zm2.583-1.124-.09.408h.85c.09 0 .157-.014.203-.042.047-.029.079-.08.095-.156.016-.071.008-.124-.024-.158-.031-.035-.093-.052-.184-.052h-.85zm-.377 1.125.275-1.25h.93c.148 0 .252.026.312.079.06.053.077.133.053.24a.382.382 0 0 1-.09.191.299.299 0 0 1-.127.08.191.191 0 0 1 .07.036c.025.019.045.05.06.092a.308.308 0 0 1 0 .164.506.506 0 0 1-.097.217.365.365 0 0 1-.172.116.805.805 0 0 1-.253.035h-.961zm.26-.59-.103.464h.883a.341.341 0 0 0 .207-.057.299.299 0 0 0 .105-.185c.018-.08.008-.137-.03-.171-.038-.035-.101-.052-.19-.052h-.873zm2.093.59.275-1.25h1.108l-.028.125h-.978l-.091.415h.953l-.028.126h-.953l-.1.458h.978l-.028.126h-1.108zm2.27-.897A.509.509 0 0 1 25 27.13a.345.345 0 0 1 .158-.114.695.695 0 0 1 .24-.036h.63c.14 0 .239.03.298.088.06.06.075.148.05.266h-.13a.225.225 0 0 0-.005-.124c-.013-.034-.04-.06-.084-.077a.501.501 0 0 0-.183-.027h-.602a.526.526 0 0 0-.18.025.199.199 0 0 0-.099.073.377.377 0 0 0-.05.13.2.2 0 0 0 0 .112c.01.027.037.047.08.06.044.012.11.019.198.019h.559c.108 0 .194.011.258.033a.208.208 0 0 1 .127.107c.022.048.024.11.007.188l-.005.025a.582.582 0 0 1-.094.208.328.328 0 0 1-.154.111.728.728 0 0 1-.24.034h-.646a.483.483 0 0 1-.208-.04.216.216 0 0 1-.114-.119.338.338 0 0 1-.006-.198h.13a.236.236 0 0 0 .003.125c.012.033.04.06.083.078a.485.485 0 0 0 .183.028h.59a.42.42 0 0 0 .233-.056.268.268 0 0 0 .11-.175.252.252 0 0 0 .003-.13c-.01-.032-.036-.055-.076-.07a.534.534 0 0 0-.178-.023h-.629a.82.82 0 0 1-.2-.02.234.234 0 0 1-.115-.06.16.16 0 0 1-.042-.097.455.455 0 0 1 .013-.14zm2.435-.354h1.348l-.028.126h-.611l-.248 1.125h-.13l.248-1.125h-.607l.028-.126z"/><path id="_379525120" class="fil2" d="M40.92 16.666c-.84.68-2.68.119-3.92-.19-1.242-.31-2.49-.72-3.478-.65a33.28 33.28 0 0 0-3.992.2c-.344.037-.403.061-.038-.078 1.434-.546 2.666-.71 4.229-.73-1.872-.996-3.42-1.846-5.543-2.056-2.437-.241-6.186-.247-7.322-.039-.762.14-.839.215-1.334.766-.565.628-1.108 1.277-1.675 1.905-.2.236-.252.256.042.275 2.233.146 4.641.647 6.643 1.12l.004.018a115.7 115.7 0 0 0-6.663-.75c-3.58-.29-7.165-.376-10.794-.14-1.312.084-2.624.209-3.937.429-.116.019-.134.028-.014-.025.262-.116.546-.218.852-.307 1.708-.5 4.104-.621 7.28-.762 2.059-.091 4.139-.003 6.264.08l1.586-1.789-2.238 1.557c-.036.025-.152.124-.058.026l.042-.044c1.328-1.38 2.431-2.201 3.188-2.53.396-.17 1.482-.274 2.545-.3 1.42-.037 2.93-.005 4.402.025 3.002.063 4.378.818 6.792 1.83l2.223.973 1.63.694.805.25c.54.164 1.136.215 1.644.117.294-.057.557-.171.558-.32.001-.077-.05-.124-.187-.152-.274-.056-.447.004-.538.147-.07.11-.188.117-.301.11-.164-.01-.27-.2-.435-.299-.12-.072-.49-.045-.442.17.034.154-.095.147-.134.066-.113-.238.204-.392.39-.393.2-.003.306.05.39.14.13.142.273.261.437.052.205-.262.95-.212 1.188-.063.189.118.204.428-.092.667z"/><g><path id="_379520176" class="fil3" d="M9.377 18.055a2.666 2.666 0 0 1 2.662 2.817 2.666 2.666 0 0 0-5.323 0 2.666 2.666 0 0 1 2.662-2.817z"/><path id="_126088944" class="fil3" d="M9.377 23.355c-.588 0-1.3-.163-1.618-.695.45.311 1.01.496 1.618.496a2.84 2.84 0 0 0 1.619-.496c-.318.532-1.03.695-1.619.695z"/><g><path id="_126088416" class="fil3" d="M9.984 21.246a.8.8 0 0 1-1.213 0l.17-.099a.608.608 0 0 0 .872 0l.171.1z"/><path id="_126089160" class="fil3" d="m8.32 22.574.233-.393a1.68 1.68 0 0 1-.63-.623l-.395.228a2.132 2.132 0 0 0 .792.788zm2.915-.79-.392-.234a1.68 1.68 0 0 1-.624.63l.228.396a2.135 2.135 0 0 0 .788-.792zm-1.294.999-.112-.443a1.68 1.68 0 0 1-.887.004l-.118.441a2.142 2.142 0 0 0 1.117-.002z"/></g></g><g><path id="_125438968" d="M27.4 13.748c-1.691-.074-3.02-.242-4.546-.131-.889.064-1.481.14-2.073.79-1.273 1.4-.94 1.203-.352 1.205l6.148.09.192.113-6.61.101c-1.045.011-.474-.56-.136-1.071l.744-.858c.351-.32.787-.727 2.952-.63 1.269.057 2.601.205 3.663.324.13.014.081.076.019.067z" style="fill:#0771b9"/><path id="_379533664" class="fil3" d="M7.66 16.946c-1.188.063-2.376.146-3.544.402-.308.067-.6.134-.851.263-.592.303-.389.808.113.853.486.043 1.257.11 1.993.053.3-.024.505-.232.766-.371.285-.152.616-.261.935-.313.216-.035.176.032.025.123-.073.045-.095.043-.165.086-1.09.673-1.6 1.555-1.697 2.692-.01.1-.017.194-.024.28-.588.007-1.04.05-1.04.104 0 .052.44.096 1.018.104-.027.23-.066.39-.148.502-.14.19-.408.237-.97.233l-.675-.015v-.236c.25-.037.426-.079.518-.156.102-.084.138-.19-.06-.391-.17-.173-.388-.404-.644-.675-.517-.546-.983-.924-1.006-1.43-.008-.186.003-.415.01-.648.011-.362.045-.348.332-.534.182-.118.38-.212.452-.423.024-.072.032-.125.055-.166.022-.04.06-.067.144-.084 1.327-.275 2.425-.33 3.775-.355l.67.011c.203.003.244.079.018.09z"/><path id="_379527160" class="fil3" d="M11.66 18.09c2.054-.118 4.107-.252 6.164-.3 2.766-.064 5.527 0 8.313.266 3.793.36 2.57.416-.08.253-.894-.056-1.849-.105-2.834-.144-2.953-.118-6.18-.064-8.863.962-.902.345-1.866 1.412-2.06 2.442h-.04l-.01.032.059-.221.022-.107.001-.006.001-.007.001-.007.002-.006v-.007l.002-.007.001-.007.001-.006.001-.008.001-.005.002-.008v-.005l.003-.013.001-.01v-.004l.002-.01v-.003l.002-.01v-.003l.002-.013.002-.012v-.002l.002-.012.001-.014.002-.014.002-.013.001-.013v-.001l.001-.013v-.001l.002-.012v-.002l.001-.012v-.002l.001-.011v-.003l.001-.01v-.004l.002-.01v-.014l.001-.005v-.008l.001-.006v-.008l.001-.006v-.007l.001-.007v-.014l.001-.006v-.014l.001-.008v-.014l.001-.005v-.024l.001-.004v-.027l.001-.012v-.139a2.83 2.83 0 0 0-.003-.071v-.002a4.149 4.149 0 0 0-.005-.071V20.486a3.03 3.03 0 0 0-.007-.068v-.008a3.407 3.407 0 0 0-.008-.066v-.008a2.33 2.33 0 0 0-.01-.07l-.002-.006a2.92 2.92 0 0 0-.01-.068l-.002-.005a2.363 2.363 0 0 0-.013-.069v-.002l-.001-.005a2.36 2.36 0 0 0-.013-.059l-.005-.02-.013-.052-.004-.015-.016-.06-.005-.018-.014-.048-.006-.02a2.84 2.84 0 0 0-.017-.052l-.007-.02a2.223 2.223 0 0 0-.018-.051l-.007-.018-.018-.048-.007-.017-.019-.048-.011-.026-.02-.045-.009-.02-.019-.04-.014-.03-.018-.036-.013-.026-.021-.04-.016-.03-.016-.027-.02-.036-.016-.027-.02-.032-.016-.027-.004-.005-.02-.033-.02-.03-.02-.028-.003-.005-.017-.025-.018-.025-.018-.024-.003-.005-.024-.031-.024-.032-.004-.005a3.005 3.005 0 0 0-4.802 3.61c-.47.013-.972 0-1.46-.003-.453-.029-.316-.39.024-.576.404-.22.503-.532.502-.895-.003-.526.028-.916.214-1.431a3.353 3.353 0 0 1 5.42-1.327l-.002-.008c.441.41.756.94.885 1.532.01.046.035.063.03.002-.034-.466-.194-.827-.47-1.206a3.368 3.368 0 0 0-.428-.483z"/></g></g><path style="fill:none" d="M0 0h43.349v43.349H0z"/></g></svg>