<?xml version="1.0" encoding="UTF-8"?>
<!DOCTYPE svg PUBLIC "-//W3C//DTD SVG 1.1//EN" "http://www.w3.org/Graphics/SVG/1.1/DTD/svg11.dtd">
<!-- Creator: CorelDRAW -->
<svg xmlns="http://www.w3.org/2000/svg" xml:space="preserve" width="43.3492mm" height="43.3494mm" style="shape-rendering:geometricPrecision; text-rendering:geometricPrecision; image-rendering:optimizeQuality; fill-rule:evenodd; clip-rule:evenodd"
viewBox="0 0 43.3492 43.3494"
 xmlns:xlink="http://www.w3.org/1999/xlink">
 <defs>
  <style type="text/css">
   <![CDATA[
    .fil5 {fill:none}
    .fil3 {fill:#0071BD}
    .fil4 {fill:#0771B9}
    .fil2 {fill:#EF7900}
    .fil0 {fill:#0071BD;fill-rule:nonzero}
    .fil1 {fill:#EF7900;fill-rule:nonzero}
   ]]>
  </style>
 </defs>
 <g id="Слой_x0020_1">
  <metadata id="CorelCorpID_0Corel-Layer"/>
  <g id="_379524952">
   <path id="_126089952" class="fil0" d="M4.7706 24.7518l0.816 0 -0.0781 0.3823 -0.8174 0 -0.1563 0.7515 -0.4563 0 0.4104 -1.9643 1.4061 0 -0.0795 0.3808 -0.9513 0 -0.0936 0.4497zm1.7892 1.1338l0.409 -1.9643 0.9363 0c0.2007,0 0.349,0.0444 0.4459,0.1338 0.0969,0.0889 0.1451,0.2077 0.1451,0.357 0,0.1315 -0.0394,0.2536 -0.1175,0.3664 -0.0781,0.1127 -0.1834,0.1825 -0.3158,0.2091l-0.0024 0.0085c0.0707,0.0243 0.1221,0.0589 0.154,0.1024 0.0318,0.044 0.0477,0.0969 0.0477,0.1591 0,0.0229 -0.0028,0.0515 -0.008,0.0857 -0.0046,0.0346 -0.0163,0.0982 -0.0346,0.1913 -0.0117,0.0641 -0.0196,0.1119 -0.0239,0.1432 -0.0037,0.0318 -0.006,0.059 -0.006,0.0814 0,0.0187 0.0028,0.0379 0.0075,0.0585 0.0051,0.0206 0.0135,0.0431 0.0252,0.0679l-0.4642 0c-0.0107,-0.0248 -0.0187,-0.0478 -0.0229,-0.0683 -0.0047,-0.0211 -0.007,-0.0412 -0.007,-0.0604 0,-0.0257 0.0023,-0.0543 0.0061,-0.0852 0.0042,-0.0308 0.0112,-0.0697 0.021,-0.1165 0.0127,-0.0575 0.0216,-0.102 0.0262,-0.1338 0.0052,-0.0314 0.0075,-0.058 0.0075,-0.08 0,-0.0538 -0.0187,-0.0955 -0.0566,-0.125 -0.0379,-0.029 -0.1095,-0.0435 -0.2148,-0.0435l-0.3546 0 -0.1484 0.7127 -0.4548 0zm0.7838 -1.5835l-0.1016 0.4895 0.4132 0c0.1062,0 0.1909,-0.0239 0.2546,-0.0711 0.0636,-0.0478 0.0954,-0.1123 0.0954,-0.1933 0,-0.0735 -0.0224,-0.1291 -0.0674,-0.1675 -0.0449,-0.0384 -0.116,-0.0576 -0.2138,-0.0576l-0.3804 0zm2.9988 1.6382c-0.2761,0 -0.489,-0.072 -0.6383,-0.2166 -0.1492,-0.1441 -0.2241,-0.3416 -0.2241,-0.5919 0,-0.3449 0.1057,-0.642 0.3177,-0.8919 0.212,-0.2499 0.4946,-0.3748 0.8483,-0.3748 0.2691,0 0.4778,0.0711 0.6261,0.2138 0.1483,0.1428 0.2227,0.3416 0.2227,0.5976 0,0.3462 -0.1038,0.6434 -0.3116,0.8918 -0.2077,0.248 -0.488,0.372 -0.8408,0.372zm0.0379 -0.3795c0.1909,0 0.3406,-0.0818 0.4501,-0.2456 0.1095,-0.1633 0.1642,-0.3552 0.1642,-0.5742 0,-0.1735 -0.0351,-0.2994 -0.1048,-0.3776 -0.0702,-0.0781 -0.1694,-0.1174 -0.298,-0.1174 -0.1905,0 -0.3402,0.0814 -0.4488,0.2442 -0.1085,0.1624 -0.1628,0.3543 -0.1628,0.5756 0,0.167 0.0351,0.2915 0.1048,0.3729 0.0702,0.0814 0.1685,0.1221 0.2953,0.1221zm2.98 0.3248l-0.1768 -1.4258 -0.0066 0 -0.2929 1.4258 -0.4562 0 0.4103 -1.9643 0.6598 0 0.1684 1.3504 0.6968 -1.3504 0.6799 0 -0.409 1.9643 -0.4562 0 0.3037 -1.4258 -0.008 0 -0.7407 1.4258 -0.3725 0zm4.2135 -1.9643l0.4562 0 -0.2414 1.145c-0.0154,0.0729 -0.0248,0.1211 -0.0271,0.1445 -0.0028,0.023 -0.0042,0.0464 -0.0042,0.0693 0,0.0884 0.029,0.1572 0.0875,0.2068 0.0584,0.0491 0.1389,0.0739 0.2405,0.0739 0.1375,0 0.2409,-0.0397 0.3102,-0.1198 0.0692,-0.08 0.1216,-0.2049 0.1567,-0.3747l0.2401 -1.145 0.4562 0 -0.2536 1.2212c-0.0613,0.2943 -0.1671,0.5007 -0.3177,0.6195 -0.1507,0.1189 -0.3552,0.1783 -0.6135,0.1783 -0.2629,0 -0.4566,-0.0505 -0.5816,-0.1521 -0.1249,-0.1015 -0.1876,-0.2512 -0.1876,-0.4496 0,-0.0258 0.0019,-0.0524 0.0056,-0.08 0.0033,-0.0281 0.0154,-0.0922 0.036,-0.1928l0.2377 -1.1445zm3.1818 0.8305l0.8923 -0.8305 0.5746 0 -0.9485 0.8675 0.5667 1.0968 -0.5194 0 -0.4038 -0.8502 -0.2672 0.2278 -0.1306 0.6224 -0.4562 0 0.4104 -1.9643 0.4543 0 -0.1726 0.8305zm2.1289 1.1338l0.409 -1.9643 0.9363 0c0.2007,0 0.349,0.0444 0.4459,0.1338 0.0968,0.0889 0.145,0.2077 0.145,0.357 0,0.1315 -0.0393,0.2536 -0.1174,0.3664 -0.0782,0.1127 -0.1834,0.1825 -0.3159,0.2091l-0.0023 0.0085c0.0707,0.0243 0.1221,0.0589 0.1539,0.1024 0.0319,0.044 0.0478,0.0969 0.0478,0.1591 0,0.0229 -0.0028,0.0515 -0.008,0.0857 -0.0047,0.0346 -0.0164,0.0982 -0.0346,0.1913 -0.0117,0.0641 -0.0197,0.1119 -0.0239,0.1432 -0.0037,0.0318 -0.0061,0.059 -0.0061,0.0814 0,0.0187 0.0029,0.0379 0.0075,0.0585 0.0052,0.0206 0.0136,0.0431 0.0253,0.0679l-0.4642 0c-0.0107,-0.0248 -0.0187,-0.0478 -0.0229,-0.0683 -0.0047,-0.0211 -0.007,-0.0412 -0.007,-0.0604 0,-0.0257 0.0023,-0.0543 0.0061,-0.0852 0.0042,-0.0308 0.0112,-0.0697 0.021,-0.1165 0.0127,-0.0575 0.0215,-0.102 0.0262,-0.1338 0.0052,-0.0314 0.0075,-0.058 0.0075,-0.08 0,-0.0538 -0.0187,-0.0955 -0.0566,-0.125 -0.0379,-0.029 -0.1095,-0.0435 -0.2148,-0.0435l-0.3547 0 -0.1483 0.7127 -0.4548 0zm0.7838 -1.5835l-0.1016 0.4895 0.4132 0c0.1062,0 0.1909,-0.0239 0.2545,-0.0711 0.0637,-0.0478 0.0955,-0.1123 0.0955,-0.1933 0,-0.0735 -0.0225,-0.1291 -0.0674,-0.1675 -0.0449,-0.0384 -0.116,-0.0576 -0.2138,-0.0576l-0.3804 0zm2.9491 -0.3808l0.4614 0 0.3158 1.9643 -0.4735 0 -0.0444 -0.3673 -0.7094 0 -0.1965 0.3673 -0.4885 0 1.1351 -1.9643zm-0.2709 1.2624l0.4904 0 -0.0898 -0.7482 -0.4006 0.7482zm2.4944 -1.2624l0.4548 0 -0.409 1.9643 -0.4562 0 0.4104 -1.9643zm2.0087 0.7238l-0.0056 0 -0.2523 1.2405 -0.4562 0 0.4104 -1.9643 0.4436 0 0.5343 1.2348 0.0085 0 0.248 -1.2348 0.4562 0 -0.409 1.9643 -0.4478 0 -0.5301 -1.2405zm2.637 -0.7238l0.4549 0 -0.409 1.9643 -0.4562 0 0.4103 -1.9643zm2.1982 0l0.4614 0 0.3158 1.9643 -0.4735 0 -0.0444 -0.3673 -0.7094 0 -0.1965 0.3673 -0.4885 0 1.1351 -1.9643zm-0.2709 1.2624l0.4904 0 -0.0899 -0.7482 -0.4005 0.7482zm2.7981 -0.5386l-0.0057 0 -0.2522 1.2405 -0.4562 0 0.4104 -1.9643 0.4436 0 0.5343 1.2348 0.0085 0 0.2479 -1.2348 0.4563 0 -0.409 1.9643 -0.4478 0 -0.5301 -1.2405z"/>
   <path id="_126088584" class="fil0" d="M15.797 19.59l1.5032 0c0.3335,0 0.5844,0.0763 0.7504,0.2291 0.166,0.1535 0.2493,0.374 0.2493,0.6631 0,0.3795 -0.1262,0.6834 -0.3794,0.9133 -0.2533,0.2299 -0.6164,0.3452 -1.0902,0.3452l-0.7239 0 -0.233 1.1205 -0.7598 0 0.6834 -3.2712zm0.6242 0.6343l-0.1824 0.879 0.5899 0c0.2167,0 0.3787,-0.0421 0.4878,-0.1271 0.1091,-0.0841 0.1637,-0.2018 0.1637,-0.3522 0,-0.1324 -0.0359,-0.2322 -0.1068,-0.2992 -0.0709,-0.067 -0.1917,-0.1005 -0.3615,-0.1005l-0.5907 0zm2.4649 2.6369l0.681 -3.2712 1.5593 0c0.3343,0 0.5813,0.074 0.7426,0.2228 0.1613,0.1481 0.2416,0.346 0.2416,0.5946 0,0.219 -0.0655,0.4223 -0.1956,0.6101 -0.1301,0.1878 -0.3055,0.304 -0.526,0.3484l-0.0039 0.014c0.1177,0.0405 0.2034,0.0982 0.2564,0.1707 0.053,0.0732 0.0795,0.1612 0.0795,0.2649 0,0.0382 -0.0047,0.0857 -0.0133,0.1426 -0.0078,0.0577 -0.0273,0.1636 -0.0577,0.3187 -0.0194,0.1068 -0.0327,0.1862 -0.0397,0.2385 -0.0062,0.0529 -0.0101,0.0981 -0.0101,0.1355 0,0.0312 0.0046,0.0632 0.0124,0.0974 0.0086,0.0343 0.0226,0.0717 0.0421,0.113l-0.773 0c-0.0179,-0.0413 -0.0312,-0.0794 -0.0382,-0.1137 -0.0078,-0.0351 -0.0117,-0.0686 -0.0117,-0.1006 0,-0.0428 0.0039,-0.0903 0.0102,-0.1418 0.007,-0.0514 0.0187,-0.1161 0.035,-0.194 0.0211,-0.0959 0.0359,-0.1699 0.0437,-0.2229 0.0085,-0.0522 0.0124,-0.0966 0.0124,-0.1332 0,-0.0896 -0.0311,-0.159 -0.0942,-0.2081 -0.0632,-0.0483 -0.1824,-0.0725 -0.3577,-0.0725l-0.5907 0 -0.247 1.1868 -0.7574 0zm1.3052 -2.6369l-0.1691 0.8151 0.6881 0c0.1769,0 0.3179,-0.0398 0.4239,-0.1185 0.106,-0.0795 0.159,-0.187 0.159,-0.3218 0,-0.1223 -0.0374,-0.2151 -0.1123,-0.279 -0.0748,-0.0639 -0.1932,-0.0958 -0.3561,-0.0958l-0.6335 0zm4.1948 2.7281c-0.4598,0 -0.8143,-0.12 -1.0629,-0.3608 -0.2486,-0.24 -0.3732,-0.5688 -0.3732,-0.9857 0,-0.5743 0.1761,-1.0691 0.5291,-1.4853 0.353,-0.4161 0.8236,-0.6241 1.4127,-0.6241 0.4481,0 0.7956,0.1184 1.0427,0.3561 0.247,0.2376 0.3709,0.5688 0.3709,0.9951 0,0.5766 -0.173,1.0714 -0.519,1.4852 -0.346,0.413 -0.8127,0.6195 -1.4003,0.6195zm0.0631 -0.632c0.318,0 0.5673,-0.1363 0.7497,-0.4091 0.1823,-0.2719 0.2735,-0.5914 0.2735,-0.9561 0,-0.2891 -0.0585,-0.4987 -0.1746,-0.6288 -0.1169,-0.1302 -0.2821,-0.1956 -0.4964,-0.1956 -0.3171,0 -0.5665,0.1356 -0.7473,0.4067 -0.1807,0.2704 -0.2711,0.5899 -0.2711,0.9585 0,0.2782 0.0584,0.4855 0.1745,0.6211 0.1169,0.1356 0.2805,0.2033 0.4917,0.2033zm2.6215 -0.6647l0.7574 0 -0.0272 0.1302c-0.0133,0.0654 -0.0211,0.1083 -0.0234,0.1278 -0.0023,0.0202 -0.0031,0.0382 -0.0031,0.0545 0,0.1115 0.0241,0.198 0.0724,0.2595 0.0491,0.0616 0.1271,0.0927 0.2354,0.0927 0.1348,0 0.2353,-0.0366 0.3008,-0.1091 0.0662,-0.0716 0.1207,-0.2135 0.1644,-0.4254l0.4605 -2.1959 0.7598 0 -0.438 2.0883c-0.1036,0.4918 -0.2548,0.8268 -0.4535,1.0061 -0.1979,0.1784 -0.4847,0.268 -0.8595,0.268 -0.3296,0 -0.5766,-0.074 -0.7418,-0.2213 -0.1644,-0.148 -0.247,-0.3592 -0.247,-0.6351 0,-0.0467 0.0039,-0.1099 0.0109,-0.1893 0.0078,-0.0787 0.0179,-0.1629 0.0319,-0.251zm4.4262 -0.7808l1.5749 0 -0.1239 0.6367 -1.5826 0 -0.1473 0.7146 1.8265 0 -0.1301 0.635 -2.591 0 0.6834 -3.2712 2.5481 0 -0.1278 0.6343 -1.7961 0 -0.1341 0.6506zm4.8346 0.8338l0.7551 0c-0.0943,0.3632 -0.2813,0.6616 -0.5619,0.8946 -0.2797,0.233 -0.6389,0.3491 -1.0761,0.3491 -0.4512,0 -0.7894,-0.1231 -1.0146,-0.3686 -0.2252,-0.2454 -0.3381,-0.5657 -0.3381,-0.96 0,-0.5735 0.1605,-1.0715 0.4807,-1.4938 0.3203,-0.4224 0.7832,-0.6335 1.3863,-0.6335 0.4434,0 0.773,0.0841 0.9889,0.2524 0.2158,0.1676 0.3241,0.4068 0.3241,0.7154 0,0.0576 -0.0015,0.1044 -0.0039,0.1402 -0.0023,0.0359 -0.0054,0.0686 -0.0101,0.0975l-0.7504 0c0.0016,-0.0125 0.0023,-0.0258 0.0031,-0.0406 0.0008,-0.014 0.0016,-0.0335 0.0016,-0.0576 0,-0.1567 -0.0522,-0.2751 -0.1551,-0.3538 -0.1036,-0.0795 -0.2447,-0.1192 -0.4247,-0.1192 -0.3062,0 -0.5509,0.1379 -0.7332,0.4137 -0.1832,0.2751 -0.2743,0.5962 -0.2743,0.9632 0,0.2751 0.0553,0.4792 0.1659,0.6125 0.1107,0.1332 0.2572,0.2002 0.4395,0.2002 0.1917,0 0.353,-0.0498 0.4832,-0.1488 0.1309,-0.099 0.2353,-0.2533 0.314,-0.4629zm2.8342 -1.4844l-0.9732 0 0.1371 -0.6343 2.7009 0 -0.1348 0.6343 -0.971 0 -0.5454 2.6369 -0.7598 0 0.5462 -2.6369z"/>
   <g>
    <polygon id="_126089784" class="fil1" points="4.0238,27.1211 13.7412,27.1211 13.7412,27.4228 4.0238,27.4228 "/>
    <polygon id="_125488768" class="fil1" points="4.0238,27.7883 13.7412,27.7883 13.7412,28.0899 4.0238,28.0899 "/>
    <polygon id="_379528120" class="fil1" points="29.6651,27.1211 39.3825,27.1211 39.3825,27.4228 29.6651,27.4228 "/>
    <polygon id="_379531576" class="fil1" points="29.6651,27.7883 39.3825,27.7883 39.3825,28.0899 29.6651,28.0899 "/>
   </g>
   <path id="_125439208" class="fil2" d="M18.5392 34.6354l-7.9841 -5.7493 2.7108 0 6.3719 4.6141c1.4618,1.1557 2.2252,1.1618 3.5888,0l6.3719 -4.6141 2.7109 0 -7.9842 5.7493c-2.4505,1.8181 -3.3354,1.8181 -5.786,0z"/>
   <path id="_379521664" class="fil3" d="M20.0141 33.0711l-5.2981 -3.6047 2.7435 2.2081 1.3718 1.0856 1.0332 0.7729c1.1201,0.8676 2.0153,0.8676 3.1354,0l1.0333 -0.7729 1.3717 -1.0856 2.7435 -2.2081 -5.2981 3.6047c-0.9989,0.6891 -1.8372,0.6891 -2.8362,0z"/>
   <path id="_379528336" class="fil1" d="M17.1847 26.9802l-0.2775 0 -0.8659 1.0669 -0.3992 -1.0669 -0.2772 0 -0.2754 1.2507 0.1294 0 0.2531 -1.1495 0.0739 0 0.4207 1.1495 0.067 0 0.927 -1.1495 0.072 0 -0.2531 1.1495 0.1297 0 0.2755 -1.2507zm0.8994 1.2507l-0.1297 0 0.2754 -1.2507 0.1297 0 -0.2754 1.2507zm2.5838 -1.1246l-0.0898 0.4078 0.8501 0c0.0892,0 0.1572,-0.0141 0.2033,-0.0424 0.0465,-0.0282 0.0781,-0.0801 0.0948,-0.1561 0.0156,-0.0709 0.0076,-0.1234 -0.0242,-0.1577 -0.0314,-0.0345 -0.0928,-0.0516 -0.1841,-0.0516l-0.8501 0zm-0.3774 1.1246l0.2754 -1.2507 0.9294 0c0.149,0 0.2531,0.0264 0.3125,0.0795 0.0593,0.0529 0.077,0.1334 0.0532,0.2412 -0.0189,0.0859 -0.0487,0.1492 -0.0896,0.1904 -0.0408,0.0408 -0.0831,0.0678 -0.1271,0.0804 0.0215,0.0048 0.0447,0.0169 0.0697,0.0355 0.0247,0.0186 0.0447,0.0492 0.0594,0.0919 0.0146,0.0426 0.0146,0.0973 -0.0002,0.1642 -0.0199,0.0904 -0.052,0.1628 -0.0967,0.2168 -0.0447,0.0544 -0.1018,0.0928 -0.1714,0.1159 -0.0697,0.0232 -0.1539,0.0349 -0.2527,0.0349l-0.9619 0zm0.2598 -0.5907l-0.1023 0.4646 0.8829 0c0.0868,0 0.1558,-0.019 0.2074,-0.0571 0.0514,-0.0381 0.0866,-0.0997 0.1052,-0.1844 0.0177,-0.0802 0.0074,-0.1372 -0.0303,-0.1717 -0.0379,-0.0343 -0.1016,-0.0514 -0.1911,-0.0514l-0.8718 0zm2.0935 0.5907l0.2754 -1.2507 1.1081 0 -0.0278 0.1261 -0.9784 0 -0.0913 0.4147 0.9528 0 -0.0277 0.1261 -0.9529 0 -0.1007 0.4577 0.9783 0 -0.0278 0.1261 -1.108 0zm2.27 -0.8973c0.0185,-0.0838 0.0477,-0.1513 0.0877,-0.2033 0.04,-0.0519 0.0925,-0.0901 0.1576,-0.1141 0.0647,-0.024 0.1448,-0.036 0.2397,-0.036l0.6303 0c0.1397,0 0.2389,0.0294 0.298,0.0883 0.0591,0.0588 0.0754,0.1471 0.0494,0.2651l-0.1297 0c0.0096,-0.0492 0.0079,-0.0904 -0.0049,-0.1237 -0.0127,-0.0336 -0.0407,-0.0592 -0.0843,-0.0769 -0.0435,-0.0177 -0.1046,-0.0267 -0.183,-0.0267l-0.6017 0c-0.0754,0 -0.1352,0.0081 -0.1793,0.0246 -0.0442,0.0165 -0.0775,0.0409 -0.0993,0.0733 -0.0219,0.0324 -0.0389,0.0757 -0.0508,0.1294 -0.0106,0.0484 -0.0108,0.0862 -0.0002,0.1129 0.0106,0.027 0.0374,0.0469 0.0809,0.0595 0.0438,0.0123 0.1097,0.0186 0.198,0.0186l0.5585 0c0.1087,0 0.1948,0.0114 0.2583,0.0339 0.0632,0.0229 0.1055,0.0583 0.1274,0.1063 0.0215,0.0481 0.0239,0.1108 0.0069,0.188l-0.0055 0.0249c-0.0229,0.0877 -0.0539,0.1574 -0.0934,0.2087 -0.0395,0.0514 -0.0909,0.0883 -0.1544,0.1108 -0.0635,0.0226 -0.1438,0.0337 -0.2407,0.0337l-0.6454 0c-0.0837,0 -0.1532,-0.0132 -0.2081,-0.0394 -0.0552,-0.0261 -0.0933,-0.066 -0.1142,-0.1195 -0.0212,-0.0537 -0.023,-0.1195 -0.0057,-0.1979l0.1297 0c-0.0097,0.0496 -0.0084,0.0913 0.0037,0.125 0.0122,0.0333 0.0401,0.0594 0.0831,0.078 0.0435,0.0183 0.1045,0.0277 0.1828,0.0277l0.5907 0c0.0991,0 0.1767,-0.0184 0.2326,-0.0553 0.0558,-0.0366 0.0927,-0.0952 0.1104,-0.1754 0.012,-0.0546 0.0126,-0.0982 0.0019,-0.13 -0.0107,-0.0321 -0.0358,-0.0555 -0.076,-0.0709 -0.0402,-0.015 -0.0992,-0.0225 -0.1776,-0.0225l-0.6288 0c-0.0823,0 -0.149,-0.0066 -0.201,-0.0201 -0.0517,-0.0135 -0.0896,-0.0333 -0.1142,-0.0595 -0.0243,-0.0261 -0.0385,-0.0585 -0.042,-0.097 -0.0039,-0.0384 0.0004,-0.0852 0.0126,-0.1405zm2.4353 -0.3534l1.3477 0 -0.0278 0.1261 -0.6111 0 -0.2476 1.1246 -0.1298 0 0.2477 -1.1246 -0.6069 0 0.0278 -0.1261z"/>
   <path id="_379525120" class="fil2" d="M40.9194 16.666c-0.8398,0.6792 -2.6796,0.1188 -3.9188,-0.1906 -1.2424,-0.3101 -2.4902,-0.7199 -3.4782,-0.6503 -1.3586,-0.0115 -2.6527,0.0521 -3.9928,0.2001 -0.344,0.038 -0.4028,0.0622 -0.0378,-0.0768 1.4346,-0.5468 2.6658,-0.7105 4.2287,-0.731 -1.8716,-0.9955 -3.4204,-1.8457 -5.5428,-2.0556 -2.4364,-0.2409 -6.1853,-0.2466 -7.3213,-0.0386 -0.7627,0.1396 -0.8392,0.2144 -1.3346,0.7657 -0.5644,0.6281 -1.1079,1.2775 -1.6752,1.9048 -0.1995,0.2361 -0.2516,0.2558 0.0426,0.275 2.2328,0.1459 4.6408,0.6472 6.6433,1.1212l0.0039 0.0169c-2.2249,-0.3109 -4.443,-0.5702 -6.6633,-0.7502 -3.5796,-0.2904 -7.1651,-0.3754 -10.7944,-0.1403 -1.312,0.0849 -2.6241,0.2092 -3.9369,0.4294 -0.1155,0.0193 -0.1334,0.0281 -0.0138,-0.0249 0.2622,-0.1159 0.546,-0.2177 0.8518,-0.3071 1.7078,-0.4995 4.1045,-0.6212 7.2796,-0.7617 2.0591,-0.0911 4.1395,-0.0034 6.2644,0.0805l1.5858 -1.7892 -2.2381 1.557c-0.0357,0.0248 -0.1515,0.1236 -0.0579,0.0255 0.014,-0.0146 0.028,-0.0293 0.042,-0.0437 1.3282,-1.3795 2.4317,-2.2016 3.1887,-2.5297 0.3953,-0.1713 1.4817,-0.2743 2.5448,-0.3011 1.4201,-0.0359 2.9296,-0.0047 4.4017,0.0258 3.0017,0.0624 4.3777,0.8182 6.7921,1.8296l2.2233 0.9737 1.6298 0.6933 0.805 0.2504c0.5409,0.1635 1.1357,0.2153 1.6438,0.1167 0.2943,-0.0572 0.557,-0.171 0.5584,-0.3191 0.0008,-0.0776 -0.0495,-0.1244 -0.1872,-0.1525 -0.2742,-0.0561 -0.4474,0.0036 -0.5378,0.1463 -0.0699,0.1103 -0.1883,0.117 -0.3013,0.11 -0.1638,-0.0101 -0.2708,-0.1992 -0.4354,-0.2981 -0.1202,-0.0723 -0.4891,-0.0453 -0.4415,0.1689 0.0344,0.1547 -0.095,0.1477 -0.1338,0.0665 -0.1133,-0.2374 0.2035,-0.3914 0.3891,-0.3933 0.2011,-0.0021 0.3066,0.0499 0.3899,0.1403 0.1307,0.1419 0.2742,0.2614 0.4381,0.0521 0.2051,-0.2619 0.9497,-0.2118 1.1881,-0.0628 0.1884,0.1177 0.2036,0.4277 -0.092,0.6669z"/>
   <g>
    <g>
     <path id="_379520176" class="fil3" d="M9.3774 18.0552c1.4722,0 2.666,1.1939 2.666,2.666 0,0.0506 -0.0015,0.1009 -0.0044,0.1508 -0.0782,-1.402 -1.2401,-2.5151 -2.6616,-2.5151 -1.4216,0 -2.5834,1.1131 -2.6616,2.5151 -0.0029,-0.0499 -0.0044,-0.1002 -0.0044,-0.1508 0,-1.4721 1.1938,-2.666 2.666,-2.666z"/>
     <path id="_126088944" class="fil3" d="M9.3774 23.3552c-0.588,0 -1.3007,-0.163 -1.6183,-0.6949 0.4495,0.3109 1.0102,0.4956 1.6183,0.4956 0.6081,0 1.1688,-0.1847 1.6183,-0.4956 -0.3177,0.5319 -1.0303,0.6949 -1.6183,0.6949z"/>
    </g>
    <g>
     <path id="_126088416" class="fil3" d="M9.9842 21.2463c-0.1472,0.1699 -0.3645,0.2774 -0.6068,0.2774 -0.2423,0 -0.4597,-0.1075 -0.6068,-0.2774l0.1713 -0.099c0.1106,0.113 0.2649,0.1832 0.4355,0.1832 0.1706,0 0.3249,-0.0702 0.4355,-0.1832l0.1713 0.099z"/>
     <path id="_126089160" class="fil3" d="M8.3197 22.5736l0.2338 -0.3922c-0.1299,-0.0733 -0.2521,-0.1651 -0.3627,-0.2757 -0.1063,-0.1064 -0.1953,-0.2236 -0.2672,-0.3479l-0.3954 0.2283c0.0914,0.1581 0.2045,0.3071 0.3399,0.4423 0.1379,0.1379 0.29,0.2529 0.4516,0.3452zm2.9153 -0.7895l-0.3922 -0.2338c-0.0733,0.1299 -0.1652,0.2521 -0.2758,0.3627 -0.1063,0.1063 -0.2235,0.1953 -0.3478,0.2672l0.2283 0.3954c0.1581,-0.0914 0.307,-0.2045 0.4423,-0.3399 0.1379,-0.1379 0.2529,-0.29 0.3452,-0.4516zm-1.2941 0.9985l-0.1121 -0.4426c-0.1436,0.04 -0.295,0.0615 -0.4514,0.0615 -0.1504,0 -0.2962,-0.0199 -0.4349,-0.0571l-0.1182 0.4411c0.1765,0.0471 0.3618,0.0724 0.5531,0.0724 0.195,0 0.3839,-0.0263 0.5635,-0.0753z"/>
    </g>
   </g>
   <g>
    <path id="_125438968" class="fil4" d="M27.4006 13.7475c-1.692,-0.0737 -3.0205,-0.2414 -4.5467,-0.131 -0.8885,0.0642 -1.4811,0.1413 -2.0726,0.7912 -1.2736,1.3994 -0.9398,1.2027 -0.3524,1.2041l6.1485 0.0903 0.1918 0.1128 -6.6111 0.1015c-1.0436,0.0108 -0.4733,-0.5603 -0.1354,-1.0717l0.7446 -0.8574c0.3507,-0.3204 0.7869,-0.7268 2.9521,-0.6298 1.2684,0.0569 2.6009,0.2047 3.6624,0.3234 0.1303,0.0145 0.0812,0.076 0.0188,0.0666z"/>
    <g>
     <path id="_379533664" class="fil3" d="M7.6603 16.9458c-1.1884,0.0633 -2.3763,0.1462 -3.5441,0.4018 -0.3081,0.0674 -0.6006,0.1346 -0.8513,0.2629 -0.5924,0.3033 -0.3887,0.8087 0.1135,0.8534 0.4855,0.0433 1.2567,0.1106 1.9921,0.0528 0.3,-0.0235 0.5055,-0.2318 0.7667,-0.3707 0.2851,-0.1518 0.616,-0.2611 0.9351,-0.313 0.2158,-0.0352 0.1752,0.0318 0.0251,0.1233 -0.0736,0.0449 -0.0951,0.0424 -0.1655,0.0857 -1.0904,0.6731 -1.6006,1.5552 -1.6973,2.6915 -0.0087,0.1011 -0.0163,0.1941 -0.0241,0.2797 -0.5876,0.0073 -1.0398,0.0514 -1.0398,0.1046 0,0.0526 0.4412,0.0962 1.0184,0.1043 -0.0276,0.2291 -0.0658,0.3902 -0.1481,0.5019 -0.1402,0.1899 -0.4085,0.2369 -0.9707,0.2333l-0.6745 -0.0157 0 -0.2353c0.2508,-0.0376 0.4261,-0.0792 0.5182,-0.1559 0.1018,-0.0848 0.1382,-0.1905 -0.0596,-0.3916 -0.1703,-0.1733 -0.3883,-0.4034 -0.6446,-0.6744 -0.5165,-0.5461 -0.9832,-0.9244 -1.0055,-1.43 -0.0082,-0.1866 0.0023,-0.4157 0.0097,-0.648 0.0114,-0.3626 0.0448,-0.348 0.3318,-0.5344 0.1818,-0.1183 0.3805,-0.2123 0.4522,-0.4231 0.0242,-0.0715 0.0321,-0.1253 0.0547,-0.1655 0.0227,-0.0403 0.0603,-0.0672 0.1441,-0.0846 1.3272,-0.2748 2.4251,-0.3302 3.7754,-0.3551l0.6691 0.0114c0.2039,0.0034 0.2446,0.0787 0.019,0.0907z"/>
     <path id="_379527160" class="fil3" d="M11.6603 18.0904c2.0537,-0.1187 4.1067,-0.2525 6.1637,-0.3004 2.7661,-0.0643 5.5272,0.0006 8.3131,0.2656 3.7926,0.3608 2.5696,0.4165 -0.0809,0.253 -0.893,-0.0551 -1.8479,-0.1041 -2.8328,-0.1436 -2.9529,-0.1184 -6.1811,-0.0638 -8.8637,0.9622 -0.9012,0.3446 -1.8652,1.4115 -2.0591,2.4419l-0.0402 -0.0009 -0.0097 0.0324 0.0582 -0.2207c0.0079,-0.0355 0.0154,-0.0713 0.022,-0.1071l0.0011 -0.0057 0.0013 -0.0074 0.0012 -0.0062 0.0012 -0.0069 0.0012 -0.0067 0.0011 -0.0065 0.0012 -0.0072 0.001 -0.0059 0.0013 -0.0078 0.0009 -0.0054 0.0013 -0.0083 0.0008 -0.0049 0.002 -0.0132 0.0015 -0.0094 0.0005 -0.0038 0.0015 -0.01 0.0005 -0.0033 0.0015 -0.0104 0.0004 -0.0028 0.0018 -0.0133 0.0016 -0.0116 0.0002 -0.0017 0.0016 -0.0121 0.0001 -0.0012 0.0016 -0.0127 0.0001 -0.0007 0.0015 -0.0133 0 0 0.0016 -0.0134 0.0001 -0.0004 0.0014 -0.013 0.0001 -0.001 0.0013 -0.0124 0.0002 -0.0016 0.0012 -0.0118 0.0002 -0.0021 0.0011 -0.0114 0.0002 -0.0026 0.001 -0.0109 0.0003 -0.0031 0.0009 -0.0103 0.0003 -0.0037 0.0008 -0.0098 0.0004 -0.0042 0.0007 -0.0093 0.0004 -0.0049 0.0006 -0.0086 0.0004 -0.0054 0.0005 -0.0082 0.0005 -0.0059 0.0004 -0.0076 0.0005 -0.0066 0.0004 -0.007 0.0003 -0.0071 0.0004 -0.0065 0.0004 -0.0076 0.0003 -0.006 0.0005 -0.0082 0.0002 -0.0055 0.0004 -0.0086 0.0002 -0.005 0.0004 -0.0093 0.0001 -0.0044 0.0003 -0.0098 0.0002 -0.0038 0.0003 -0.0105 0.0001 -0.0032 0.0002 -0.011 0.0001 -0.0027 0.0002 -0.0115 0.0001 -0.0023 0.0002 -0.012 0 -0.0017 0.0002 -0.0126 0 -0.0011 0 -0.0132 0 -0.0006 0.0001 -0.0138c0,-0.0249 -0.0003,-0.0497 -0.0009,-0.0746l-0.0003 -0.0073c-0.0006,-0.0237 -0.0015,-0.0476 -0.0027,-0.0713l-0.0001 -0.0021c-0.0013,-0.0237 -0.0027,-0.0473 -0.0044,-0.0709l-0.0004 -0.0049 -0.0003 -0.0044c-0.0018,-0.0226 -0.0038,-0.0451 -0.0061,-0.0676l-0.0009 -0.0085c-0.0023,-0.0218 -0.0047,-0.0435 -0.0074,-0.0651l-0.0007 -0.0058 -0.0003 -0.0026c-0.003,-0.0236 -0.0062,-0.0469 -0.0099,-0.0703l-0.0009 -0.0056c-0.0035,-0.0228 -0.0072,-0.0455 -0.0112,-0.068l-0.0009 -0.0047c-0.0041,-0.0232 -0.0085,-0.0464 -0.0133,-0.0695l-0.0004 -0.0021 -0.001 -0.0049c-0.004,-0.0196 -0.0083,-0.0392 -0.0128,-0.0587l-0.0045 -0.0194 -0.0129 -0.0527 -0.0039 -0.0155c-0.0052,-0.0201 -0.0106,-0.0401 -0.0162,-0.06l-0.0053 -0.0181 -0.014 -0.0473 -0.0062 -0.0201c-0.0055,-0.0174 -0.0111,-0.0345 -0.0169,-0.0517l-0.0069 -0.0205c-0.0059,-0.0172 -0.0118,-0.0343 -0.0181,-0.0513l-0.0065 -0.0176 -0.0181 -0.0476 -0.0069 -0.0177 -0.0193 -0.0473 -0.0111 -0.0261 -0.02 -0.0458 -0.0087 -0.0191 -0.019 -0.0408 -0.0146 -0.0303 -0.0177 -0.0355 -0.0134 -0.0262 -0.0209 -0.0396 -0.0161 -0.0296 -0.0153 -0.0274 -0.0207 -0.036 -0.0159 -0.0269 -0.0193 -0.0319 -0.0007 -0.0012 -0.016 -0.0257 -0.0033 -0.0051 -0.0211 -0.0329 -0.02 -0.0303 -0.0187 -0.0277 -0.0037 -0.0055 -0.0173 -0.0249 -0.0002 -0.0002 -0.0174 -0.0245 -0.0178 -0.0245 -0.0036 -0.0049 -0.0233 -0.0313 -0.024 -0.0313 -0.0039 -0.0051 0 0c-0.5498,-0.7048 -1.407,-1.1582 -2.3699,-1.1582 -1.6589,0 -3.0042,1.3454 -3.0042,3.0042 0,0.6587 0.2123,1.2678 0.5719,1.7631 -0.4696,0.0137 -0.9722,0.0011 -1.46,-0.0024 -0.4528,-0.0289 -0.3165,-0.3901 0.0243,-0.5757 0.404,-0.22 0.5026,-0.532 0.5011,-0.8954 -0.0022,-0.5255 0.0281,-0.9159 0.2146,-1.431 0.4667,-1.2889 1.7023,-2.2103 3.1523,-2.2103 0.8742,0 1.6703,0.335 2.2671,0.8834l-0.0014 -0.0082c0.4411,0.4105 0.7558,0.94 0.8848,1.5328 0.0097,0.0456 0.0353,0.0628 0.0309,0.002 -0.0351,-0.4667 -0.1944,-0.8275 -0.4709,-1.2069 -0.1268,-0.1741 -0.2702,-0.3357 -0.4276,-0.4822z"/>
    </g>
   </g>
  </g>
  <rect class="fil5" x="-4.95494e-005" y="4.93163e-005" width="43.3493" height="43.3493"/>
 </g>
</svg>
