<svg xmlns="http://www.w3.org/2000/svg" xml:space="preserve" width="29.975" height="10.24" style="shape-rendering:geometricPrecision;text-rendering:geometricPrecision;image-rendering:optimizeQuality;fill-rule:evenodd;clip-rule:evenodd" viewBox="0 0 7.931 2.709"><defs><style>.fil0,.fil2{fill:#0071bd}.fil0{fill-rule:nonzero}</style></defs><g id="Слой_x0020_1"><path class="fil0" d="M.523 2.467H.69l-.016.078H.507l-.032.153H.382l.084-.4h.286l-.016.078H.542l-.019.091zm.365.231.083-.4h.19c.041 0 .072.01.091.027.02.019.03.043.03.073a.129.129 0 0 1-.024.075.1.1 0 0 1-.064.042v.002a.063.063 0 0 1 .03.021c.007.009.01.02.01.032l-.001.018a.76.76 0 0 1-.012.068.139.139 0 0 0-.002.017c0 .003 0 .007.002.011a.072.072 0 0 0 .005.014h-.094a.06.06 0 0 1-.006-.026.16.16 0 0 1 .005-.041.45.45 0 0 0 .007-.044.03.03 0 0 0-.012-.025c-.007-.006-.022-.009-.043-.009H1.01l-.03.145H.888zm.16-.322-.022.1h.085a.085.085 0 0 0 .051-.015.047.047 0 0 0 .02-.04c0-.014-.005-.026-.014-.033-.01-.008-.023-.012-.043-.012h-.078zm.61.333c-.056 0-.1-.014-.13-.044a.16.16 0 0 1-.046-.12c0-.07.022-.13.065-.182.043-.05.1-.076.173-.076.054 0 .097.014.127.043.03.03.045.07.045.122 0 .07-.02.131-.063.182a.212.212 0 0 1-.171.075zm.008-.077c.038 0 .069-.017.091-.05a.205.205 0 0 0 .034-.117c0-.035-.008-.06-.022-.077a.077.077 0 0 0-.06-.024.104.104 0 0 0-.092.05.205.205 0 0 0-.033.117c0 .034.007.06.021.076a.075.075 0 0 0 .06.025zm.606.066-.036-.29-.06.29h-.094l.084-.4H2.3l.035.275.142-.275h.138l-.083.4h-.093l.062-.29h-.002l-.15.29h-.077zm.858-.4h.093l-.049.233a.357.357 0 0 0-.006.044c0 .018.006.032.018.042.012.01.028.015.049.015.028 0 .049-.008.063-.024a.17.17 0 0 0 .032-.077l.049-.233h.092l-.051.249c-.013.06-.034.102-.065.126a.196.196 0 0 1-.125.036c-.053 0-.093-.01-.118-.03-.026-.021-.038-.052-.038-.092V2.57l.008-.04.048-.233zm.648.17.182-.17h.117l-.193.177.115.223h-.105l-.083-.173-.054.047-.027.126h-.093l.084-.4h.093l-.036.17zm.434.23.083-.4h.19c.042 0 .072.01.092.027.02.019.03.043.03.073a.129.129 0 0 1-.025.075.1.1 0 0 1-.064.042v.002a.063.063 0 0 1 .03.021c.007.009.01.02.01.032l-.001.018a.95.95 0 0 1-.012.068.141.141 0 0 0-.001.017l.001.011a.072.072 0 0 0 .005.014h-.094a.06.06 0 0 1-.006-.026.16.16 0 0 1 .005-.041.372.372 0 0 0 .007-.044.03.03 0 0 0-.011-.025c-.008-.006-.023-.009-.044-.009h-.072l-.03.145h-.093zm.16-.322-.021.1h.084a.085.085 0 0 0 .052-.015.047.047 0 0 0 .02-.04c0-.014-.005-.026-.014-.033-.01-.008-.024-.012-.044-.012h-.077zm.6-.078h.094l.064.4h-.096l-.01-.075H4.88l-.04.075h-.099l.231-.4zm-.055.257h.1l-.019-.152-.081.152zm.508-.257h.093l-.084.4h-.093l.084-.4zm.409.148h-.001l-.052.252H5.69l.083-.4h.09l.11.252.051-.252h.093l-.083.4h-.091l-.108-.252zm.537-.148h.093l-.084.4h-.093l.084-.4zm.448 0h.094l.064.4H6.88l-.009-.075h-.144l-.04.075h-.1l.232-.4zm-.056.257h.1l-.018-.152-.082.152zm.57-.11-.052.253h-.093l.083-.4h.09l.11.252h.001l.05-.252h.094l-.084.4h-.09l-.109-.252zM2.769 1.416h.306c.068 0 .119.016.153.047.033.031.05.076.05.135 0 .077-.025.14-.077.186-.052.047-.125.07-.222.07h-.147l-.048.228H2.63l.14-.666zm.127.13-.037.178h.12c.044 0 .077-.008.099-.025a.086.086 0 0 0 .033-.072c0-.027-.007-.047-.021-.061-.015-.014-.04-.02-.074-.02h-.12zm.502.536.138-.666h.318c.068 0 .118.015.151.046.033.03.05.07.05.12a.214.214 0 0 1-.04.125.165.165 0 0 1-.108.07v.004c.024.008.04.02.052.035a.09.09 0 0 1 .016.053l-.003.03a1.331 1.331 0 0 1-.011.064 1.085 1.085 0 0 0-.01.077c0 .006 0 .012.002.02a.127.127 0 0 0 .008.022h-.157a.1.1 0 0 1-.01-.044.26.26 0 0 1 .01-.068.716.716 0 0 0 .01-.072.05.05 0 0 0-.019-.043c-.013-.01-.037-.014-.072-.014h-.12l-.051.241h-.154zm.265-.537-.034.166h.14a.14.14 0 0 0 .086-.024.077.077 0 0 0 .033-.065c0-.025-.008-.044-.023-.057-.015-.013-.04-.02-.073-.02h-.129zm.855.556c-.094 0-.166-.024-.217-.074a.266.266 0 0 1-.076-.2c0-.117.036-.218.108-.303a.358.358 0 0 1 .288-.127c.091 0 .162.024.212.073.05.048.076.116.076.202a.457.457 0 0 1-.106.303.353.353 0 0 1-.285.126zm.013-.129a.174.174 0 0 0 .152-.083.341.341 0 0 0 .056-.195c0-.059-.012-.101-.036-.128a.129.129 0 0 0-.1-.04.174.174 0 0 0-.153.083.343.343 0 0 0-.055.195c0 .057.012.1.035.127a.125.125 0 0 0 .1.041zm.533-.135h.155l-.006.026a.455.455 0 0 0-.005.038c0 .022.005.04.014.052.01.013.026.02.048.02.028 0 .048-.008.062-.023a.192.192 0 0 0 .033-.087l.094-.447h.155l-.09.426c-.02.1-.051.168-.092.204-.04.037-.099.055-.175.055-.067 0-.117-.015-.151-.045-.034-.03-.05-.073-.05-.13a.48.48 0 0 1 .008-.089zm.902-.159h.32l-.025.13H5.94l-.03.145h.372l-.027.13h-.527l.139-.667h.519l-.026.13h-.366l-.027.132zm.984.17h.154a.342.342 0 0 1-.114.182.33.33 0 0 1-.22.071c-.091 0-.16-.025-.206-.075a.278.278 0 0 1-.069-.196.49.49 0 0 1 .098-.304.333.333 0 0 1 .282-.129c.09 0 .158.017.202.052a.174.174 0 0 1 .066.145.511.511 0 0 1-.003.049h-.153V1.623c0-.032-.01-.056-.03-.072a.139.139 0 0 0-.087-.025.171.171 0 0 0-.15.085.346.346 0 0 0-.055.196c0 .056.01.097.033.124a.11.11 0 0 0 .09.041c.039 0 .072-.01.098-.03a.204.204 0 0 0 .064-.094zm.577-.303H7.33l.028-.129h.55l-.027.13h-.198l-.111.536h-.155l.111-.537z"/><path d="M7.885.82c-.171.14-.546.025-.798-.038C6.834.719 6.579.635 6.378.65c-.276-.003-.54.01-.813.04-.07.008-.082.013-.008-.015C5.85.563 6.1.53 6.42.525 6.037.324 5.722.15 5.289.108 4.795.058 4.03.057 3.8.1c-.155.029-.171.044-.272.156-.115.128-.225.26-.341.388-.04.048-.051.052.009.056.454.03.945.132 1.352.229l.001.003A23.516 23.516 0 0 0 3.191.778C2.462.72 1.732.702.993.75a7.94 7.94 0 0 0-.801.087C.168.841.164.843.189.832.242.808.299.788.362.769.71.668 1.198.643 1.845.614c.419-.018.843 0 1.275.017l.323-.365-.456.317C2.98.59 2.957.61 2.976.59l.008-.01c.27-.28.495-.448.65-.514.08-.035.301-.056.518-.062.289-.007.596 0 .896.006.611.012.892.166 1.383.372l.453.198.332.142.164.05c.11.034.231.044.335.024.06-.011.113-.034.113-.065 0-.015-.01-.025-.038-.03-.056-.012-.09 0-.11.03-.014.022-.038.023-.06.022C7.585.749 7.563.71 7.53.69c-.024-.015-.099-.01-.09.034.008.032-.019.03-.027.014-.023-.049.042-.08.08-.08.04 0 .062.01.08.028.026.03.055.053.088.01.042-.052.194-.042.242-.012.039.024.042.087-.018.136z" style="fill:#ef7900"/><g id="_125301560"><path id="_379520176" class="fil2" d="M1.461 1.104a.543.543 0 0 1 .542.573.543.543 0 0 0-1.084 0v-.03c0-.3.243-.543.542-.543z"/><path id="_126088944" class="fil2" d="M1.461 2.183c-.12 0-.265-.033-.33-.142.092.064.206.101.33.101a.578.578 0 0 0 .33-.1c-.065.108-.21.141-.33.141z"/><g><path id="_126088416" class="fil2" d="M1.585 1.754a.163.163 0 0 1-.247 0l.035-.02a.123.123 0 0 0 .177 0l.035.02z"/><path id="_126089160" class="fil2" d="m1.246 2.024.048-.08a.34.34 0 0 1-.129-.127l-.08.046a.435.435 0 0 0 .16.16zm.594-.16-.08-.049a.345.345 0 0 1-.127.129l.046.08a.435.435 0 0 0 .16-.16zm-.264.202-.023-.09a.345.345 0 0 1-.18.001l-.024.09a.436.436 0 0 0 .227 0z"/></g></g><g id="_379526512"><path id="_125438968" d="M5.132.227C4.787.212 4.516.177 4.206.2c-.181.013-.302.029-.422.161-.26.285-.192.245-.072.245l1.252.019.039.023-1.346.02C3.444.67 3.56.554 3.629.45l.152-.175c.071-.065.16-.148.601-.128.258.012.53.042.746.066.026.003.016.015.004.014z" style="fill:#0771b9"/><path id="_379533664" class="fil2" d="M1.112.878A4.48 4.48 0 0 0 .39.96a.72.72 0 0 0-.173.053c-.121.062-.08.165.023.174.099.009.256.022.405.01.061-.004.103-.046.156-.075a.629.629 0 0 1 .19-.063c.045-.008.037.006.006.025-.015.009-.02.008-.034.017a.673.673 0 0 0-.345.548l-.005.057c-.12.002-.212.01-.212.021 0 .011.09.02.207.022a.217.217 0 0 1-.03.102c-.028.038-.083.048-.197.047l-.138-.003v-.048c.051-.007.087-.016.106-.032.02-.017.028-.038-.012-.08-.035-.035-.08-.081-.132-.137-.105-.11-.2-.188-.204-.29-.002-.039 0-.085.001-.133.003-.074.01-.07.068-.109.037-.024.078-.043.092-.086C.167.966.17.955.173.947.178.938.186.933.203.929.473.873.697.862.972.857l.136.002c.041.001.05.016.004.019z"/><path id="_379527160" class="fil2" d="M1.926 1.11c.418-.023.837-.05 1.255-.06.564-.013 1.126 0 1.693.054.773.073.524.085-.016.051a27.475 27.475 0 0 0-.577-.029c-.601-.024-1.259-.013-1.805.196a.742.742 0 0 0-.42.497h-.008l-.002.007.012-.045a.764.764 0 0 0 .005-.022v-.005l.001-.002v-.005l.001-.001v-.003l.001-.003v-.005l.001-.002v-.006l.001-.003v-.005l.001-.003V1.71l.001-.002V1.698l.001-.002V1.686l.001-.002v-.023l.001-.003v-.043l-.002-.014v-.002l-.001-.014v-.002l-.002-.013v-.001a.816.816 0 0 0-.002-.015v-.001a.67.67 0 0 0-.002-.014v-.001l-.003-.014v-.002l-.003-.012-.001-.004-.003-.01v-.003L2.05 1.48v-.003l-.004-.01-.001-.004-.003-.01-.002-.005-.004-.01v-.004l-.005-.01v-.003l-.005-.01-.002-.005-.004-.01-.002-.003-.004-.009-.003-.006-.003-.007-.003-.005L2 1.358l-.004-.006-.003-.006-.004-.007-.003-.006-.004-.006-.004-.006-.005-.007-.004-.007-.003-.005-.001-.001-.004-.005-.003-.006-.004-.005-.005-.007-.005-.006-.001-.001a.61.61 0 0 0-.978.735c-.096.002-.198 0-.297 0-.093-.007-.065-.08.005-.118.082-.045.102-.108.102-.182 0-.107.005-.187.043-.292a.683.683 0 0 1 1.104-.27v-.002c.09.084.154.192.18.312.002.01.007.013.006 0a.454.454 0 0 0-.096-.245.678.678 0 0 0-.087-.098z"/></g></g></svg>