<?xml version="1.0" encoding="UTF-8"?>
<!DOCTYPE svg PUBLIC "-//W3C//DTD SVG 1.1//EN" "http://www.w3.org/Graphics/SVG/1.1/DTD/svg11.dtd">
<!-- Creator: CorelDRAW -->
<svg xmlns="http://www.w3.org/2000/svg" xml:space="preserve" width="7.9309mm" height="2.7094mm" style="shape-rendering:geometricPrecision; text-rendering:geometricPrecision; image-rendering:optimizeQuality; fill-rule:evenodd; clip-rule:evenodd"
viewBox="0 0 7.9312 2.7095"
 xmlns:xlink="http://www.w3.org/1999/xlink">
 <defs>
  <style type="text/css">
   <![CDATA[
    .fil2 {fill:#0071BD}
    .fil3 {fill:#0771B9}
    .fil1 {fill:#EF7900}
    .fil0 {fill:#0071BD;fill-rule:nonzero}
   ]]>
  </style>
 </defs>
 <g id="Слой_x0020_1">
  <metadata id="CorelCorpID_0Corel-Layer"/>
  <path class="fil0" d="M0.52312 2.46739l0.166206 0 -0.0159006 0.0779029 -0.166506 0 -0.0318012 0.153006 -0.0929035 0 0.0836032 -0.400015 0.286311 0 -0.0162006 0.0776029 -0.193707 0 -0.0191007 0.0915035zm0.364414 0.230909l0.0833032 -0.400015 0.190607 0c0.0409015,0 0.0711027,0.00910034 0.0908034,0.027201 0.0198007,0.0182007 0.0296011,0.0424016 0.0296011,0.0727028 0,0.026801 -0.0080003,0.051702 -0.0239009,0.0747028 -0.0160006,0.0229009 -0.0374014,0.0371014 -0.0644024,0.0425016l-0.000400015 0.00180007c0.0143005,0.00490019 0.0248009,0.0120005 0.0313012,0.0208008 0.00650025,0.00900034 0.00970037,0.0198007 0.00970037,0.0324012 0,0.00470018 -0.000500019,0.0105004 -0.00160006,0.0175007 -0.000900034,0.00700026 -0.00330012,0.0200008 -0.00700026,0.0389015 -0.00240009,0.0131005 -0.00400015,0.0228009 -0.00490019,0.0292011 -0.00080003,0.00650025 -0.00120005,0.0120005 -0.00120005,0.0166006 0,0.00380014 0.000500019,0.00770029 0.00150006,0.0119005 0.00100004,0.00420016 0.0027001,0.00870033 0.00510019,0.0138005l-0.0945036 0c-0.00220008,-0.00510019 -0.00380014,-0.00970037 -0.00470018,-0.0139005 -0.000900034,-0.00430016 -0.00140005,-0.00840032 -0.00140005,-0.0123005 0,-0.0053002 0.000500019,-0.0111004 0.00120005,-0.0174007 0.000900034,-0.00620023 0.00230009,-0.0141005 0.00430016,-0.0237009 0.0026001,-0.0117004 0.00440017,-0.0207008 0.0054002,-0.027201 0.00100004,-0.00640024 0.00150006,-0.0118004 0.00150006,-0.0163006 0,-0.0110004 -0.00380014,-0.0195007 -0.0115004,-0.025501 -0.0078003,-0.00590022 -0.0223008,-0.00880033 -0.0438017,-0.00880033l-0.0722027 0 -0.0302011 0.145105 -0.0926035 0zm0.159606 -0.322412l-0.0207008 0.0996038 0.0841032 0c0.0217008,0 0.0389015,-0.00480018 0.051902,-0.0145005 0.0129005,-0.00970037 0.0194007,-0.0228009 0.0194007,-0.0393015 0,-0.0150006 -0.00460017,-0.026301 -0.0137005,-0.0341013 -0.00920035,-0.0078003 -0.0236009,-0.0117004 -0.0435016,-0.0117004l-0.0775029 0zm0.610623 0.333513c-0.0562021,0 -0.0995038,-0.0146006 -0.129905,-0.0441017 -0.0304011,-0.0293011 -0.0457017,-0.0695026 -0.0457017,-0.120505 0,-0.0702027 0.0216008,-0.130705 0.0647024,-0.181607 0.0432016,-0.0509019 0.100704,-0.0763029 0.172807,-0.0763029 0.0548021,0 0.0973037,0.0144005 0.127505,0.0435016 0.0302011,0.0291011 0.0453017,0.0696026 0.0453017,0.121705 0,0.0705027 -0.0211008,0.131005 -0.0634024,0.181607 -0.0423016,0.0505019 -0.0994038,0.0757029 -0.171306,0.0757029zm0.0078003 -0.0772029c0.0388015,0 0.0693026,-0.0167006 0.0916035,-0.0501019 0.0223008,-0.0332013 0.0335013,-0.0723027 0.0335013,-0.116904 0,-0.0353013 -0.00720027,-0.0609023 -0.0214008,-0.0769029 -0.0143005,-0.0159006 -0.0345013,-0.0239009 -0.0607023,-0.0239009 -0.0388015,0 -0.0692026,0.0166006 -0.0913035,0.0498019 -0.0222008,0.0330012 -0.0332013,0.0721027 -0.0332013,0.117204 0,0.0340013 0.00710027,0.0593022 0.0213008,0.0759029 0.0143005,0.0166006 0.0343013,0.0249009 0.0602023,0.0249009zm0.606823 0.0661025l-0.0360014 -0.290311 -0.00130005 0 -0.0597023 0.290311 -0.0929035 0 0.0836032 -0.400015 0.134305 0 0.0343013 0.27501 0.141905 -0.27501 0.138405 0 -0.0832031 0.400015 -0.0929035 0 0.0618023 -0.290311 -0.00160006 0 -0.150806 0.290311 -0.0759029 0zm0.858032 -0.400015l0.0929035 0 -0.0491019 0.233209c-0.00320012,0.0148006 -0.00510019,0.0246009 -0.00560021,0.0294011 -0.000500019,0.00470018 -0.00080003,0.00940036 -0.00080003,0.0141005 0,0.0180007 0.00590022,0.0320012 0.0178007,0.0421016 0.0119005,0.0100004 0.0283011,0.0151006 0.0490019,0.0151006 0.0280011,0 0.0490019,-0.00810031 0.0631024,-0.0244009 0.0141005,-0.0163006 0.0248009,-0.0418016 0.0320012,-0.0763029l0.0488018 -0.233209 0.0929035 0 -0.051602 0.248709c-0.0125005,0.0599023 -0.0340013,0.101904 -0.0647024,0.126105 -0.0307012,0.0242009 -0.0723027,0.0363014 -0.124905,0.0363014 -0.053602,0 -0.0930035,-0.0103004 -0.118504,-0.0309012 -0.025401,-0.0207008 -0.0382014,-0.0512019 -0.0382014,-0.0916035 0,-0.0052002 0.000400015,-0.0107004 0.00120005,-0.0163006 0.000600023,-0.00570022 0.00310012,-0.0188007 0.00730028,-0.0392015l0.0484018 -0.233109zm0.647925 0.169106l0.181707 -0.169106 0.117004 0 -0.193107 0.176707 0.115404 0.223308 -0.105804 0 -0.0822031 -0.173107 -0.0544021 0.0464018 -0.026601 0.126705 -0.0929035 0 0.0836032 -0.400015 0.0925035 0 -0.0352013 0.169106zm0.433616 0.230909l0.0832031 -0.400015 0.190707 0c0.0409015,0 0.0711027,0.00910034 0.0908034,0.027201 0.0197007,0.0182007 0.0295011,0.0424016 0.0295011,0.0727028 0,0.026801 -0.0080003,0.051702 -0.0239009,0.0747028 -0.0159006,0.0229009 -0.0373014,0.0371014 -0.0643024,0.0425016l-0.000500019 0.00180007c0.0144005,0.00490019 0.0249009,0.0120005 0.0314012,0.0208008 0.00650025,0.00900034 0.00970037,0.0198007 0.00970037,0.0324012 0,0.00470018 -0.000600023,0.0105004 -0.00160006,0.0175007 -0.00100004,0.00700026 -0.00340013,0.0200008 -0.00710027,0.0389015 -0.00240009,0.0131005 -0.00400015,0.0228009 -0.00480018,0.0292011 -0.00080003,0.00650025 -0.00130005,0.0120005 -0.00130005,0.0166006 0,0.00380014 0.000600023,0.00770029 0.00160006,0.0119005 0.00100004,0.00420016 0.0027001,0.00870033 0.00510019,0.0138005l-0.0945036 0c-0.00220008,-0.00510019 -0.00380014,-0.00970037 -0.00470018,-0.0139005 -0.000900034,-0.00430016 -0.00140005,-0.00840032 -0.00140005,-0.0123005 0,-0.0053002 0.000500019,-0.0111004 0.00120005,-0.0174007 0.000900034,-0.00620023 0.00230009,-0.0141005 0.00430016,-0.0237009 0.0026001,-0.0117004 0.00440017,-0.0207008 0.0053002,-0.027201 0.00110004,-0.00640024 0.00160006,-0.0118004 0.00160006,-0.0163006 0,-0.0110004 -0.00380014,-0.0195007 -0.0116004,-0.025501 -0.00770029,-0.00590022 -0.0223008,-0.00880033 -0.0437017,-0.00880033l-0.0722027 0 -0.0302011 0.145105 -0.0926035 0zm0.159606 -0.322412l-0.0207008 0.0996038 0.0841032 0c0.0216008,0 0.0389015,-0.00480018 0.051902,-0.0145005 0.0129005,-0.00970037 0.0194007,-0.0228009 0.0194007,-0.0393015 0,-0.0150006 -0.00460017,-0.026301 -0.0137005,-0.0341013 -0.00920035,-0.0078003 -0.0237009,-0.0117004 -0.0436016,-0.0117004l-0.0774029 0zm0.600523 -0.0776029l0.0940036 0 0.0643024 0.400015 -0.0964036 0 -0.00910034 -0.0748028 -0.144405 0 -0.0401015 0.0748028 -0.0994038 0 0.231109 -0.400015zm-0.0552021 0.25711l0.0999038 0 -0.0183007 -0.152406 -0.0816031 0.152406zm0.508019 -0.25711l0.0926035 0 -0.0833032 0.400015 -0.0929035 0 0.0836032 -0.400015zm0.409015 0.147406l-0.00110004 0 -0.0514019 0.25261 -0.0929035 0 0.0836032 -0.400015 0.0903034 0 0.108804 0.25141 0.00170006 0 0.0505019 -0.25141 0.0929035 0 -0.0832031 0.400015 -0.0912034 0 -0.108004 -0.25261zm0.53702 -0.147406l0.0926035 0 -0.0832031 0.400015 -0.0929035 0 0.0835032 -0.400015zm0.447717 0l0.0939036 0 0.0643024 0.400015 -0.0964036 0 -0.00910034 -0.0748028 -0.144405 0 -0.0400015 0.0748028 -0.0995038 0 0.231209 -0.400015zm-0.0552021 0.25711l0.0998038 0 -0.0183007 -0.152406 -0.0815031 0.152406zm0.569822 -0.109704l-0.00120005 0 -0.0513019 0.25261 -0.0929035 0 0.0835032 -0.400015 0.0904034 0 0.108804 0.25141 0.00170006 0 0.0505019 -0.25141 0.0929035 0 -0.0833032 0.400015 -0.0912034 0 -0.107904 -0.25261z"/>
  <path class="fil0" d="M2.7686 1.41625l0.306112 0c0.0679026,0 0.119005,0.0156006 0.152806,0.0467018 0.0338013,0.0312012 0.0508019,0.0761029 0.0508019,0.135005 0,0.0773029 -0.025701,0.139205 -0.0773029,0.186007 -0.051602,0.0468018 -0.125505,0.0703027 -0.222008,0.0703027l-0.147406 0 -0.0475018 0.228109 -0.154706 0 0.139205 -0.666125zm0.127105 0.129205l-0.0371014 0.179007 0.120105 0c0.0441017,0 0.0771029,-0.00860033 0.0993038,-0.025901 0.0222008,-0.0171006 0.0334013,-0.0411016 0.0334013,-0.0717027 0,-0.027001 -0.00730028,-0.0473018 -0.0218008,-0.0609023 -0.0144005,-0.0137005 -0.0390015,-0.0205008 -0.0736028,-0.0205008l-0.120305 0zm0.501919 0.53692l0.138705 -0.666125 0.317512 0c0.0681026,0 0.118404,0.0151006 0.151306,0.0454017 0.0328012,0.0302011 0.0492019,0.0705027 0.0492019,0.121105 0,0.0446017 -0.0134005,0.0860033 -0.0399015,0.124205 -0.026501,0.0383014 -0.0622024,0.0619023 -0.107104,0.0709027l-0.00080003 0.00290011c0.0240009,0.00830031 0.0414016,0.0200008 0.052202,0.0348013 0.0108004,0.0149006 0.0162006,0.0328012 0.0162006,0.053902 0,0.0078003 -0.000900034,0.0175007 -0.0027001,0.0290011 -0.00160006,0.0118004 -0.00550021,0.0334013 -0.0117004,0.0649025 -0.00400015,0.0218008 -0.00670025,0.0380014 -0.00810031,0.0486018 -0.00130005,0.0108004 -0.00210008,0.0200008 -0.00210008,0.027601 0,0.00640024 0.00100004,0.0129005 0.0026001,0.0198007 0.00170006,0.00700026 0.00460017,0.0146006 0.00850032,0.0230009l-0.157406 0c-0.00360014,-0.00840032 -0.00630024,-0.0161006 -0.0078003,-0.0231009 -0.00150006,-0.00720027 -0.00230009,-0.0140005 -0.00230009,-0.0205008 0,-0.00870033 0.00080003,-0.0184007 0.00200008,-0.0289011 0.00150006,-0.0104004 0.00380014,-0.0236009 0.00720027,-0.0395015 0.00430016,-0.0195007 0.00730028,-0.0346013 0.00890034,-0.0454017 0.00170006,-0.0106004 0.00250009,-0.0196007 0.00250009,-0.027101 0,-0.0182007 -0.00640024,-0.0324012 -0.0192007,-0.0424016 -0.0129005,-0.00980037 -0.0371014,-0.0147006 -0.0728028,-0.0147006l-0.120305 0 -0.0503019 0.241609 -0.154306 0zm0.26581 -0.53692l-0.0344013 0.166006 0.140105 0c0.0360014,0 0.0648025,-0.00810031 0.0863033,-0.0242009 0.0216008,-0.0161006 0.0324012,-0.0380014 0.0324012,-0.0655025 0,-0.0249009 -0.00760029,-0.0438017 -0.0228009,-0.0568021 -0.0153006,-0.0130005 -0.0394015,-0.0195007 -0.0726027,-0.0195007l-0.129005 0zm0.854232 0.555521c-0.0936035,0 -0.165806,-0.0244009 -0.216408,-0.0735028 -0.0506019,-0.0488018 -0.0760029,-0.115804 -0.0760029,-0.200708 0,-0.116904 0.0358014,-0.217708 0.107704,-0.302411 0.0719027,-0.0848032 0.167806,-0.127105 0.287711,-0.127105 0.0913035,0 0.162006,0.0241009 0.212308,0.0725027 0.0503019,0.0484018 0.0756029,0.115804 0.0756029,0.202608 0,0.117404 -0.0353013,0.218208 -0.105704,0.302511 -0.0705027,0.0841032 -0.165506,0.126105 -0.285211,0.126105zm0.0129005 -0.128705c0.0647024,0 0.115504,-0.027701 0.152606,-0.0833032 0.0372014,-0.0554021 0.0557021,-0.120405 0.0557021,-0.194707 0,-0.0588022 -0.0119005,-0.101504 -0.0355013,-0.128005 -0.0238009,-0.026501 -0.0575022,-0.0399015 -0.101104,-0.0399015 -0.0646024,0 -0.115304,0.027701 -0.152206,0.0829031 -0.0368014,0.0550021 -0.0552021,0.120105 -0.0552021,0.195107 0,0.0567021 0.0119005,0.0989037 0.0356013,0.126505 0.0238009,0.027601 0.0571022,0.0414016 0.100104,0.0414016zm0.53382 -0.135305l0.154306 0 -0.00560021 0.026501c-0.0027001,0.0133005 -0.00430016,0.0220008 -0.00480018,0.026001 -0.000400015,0.00410016 -0.000600023,0.0078003 -0.000600023,0.0111004 0,0.0227009 0.00490019,0.0403015 0.0148006,0.052802 0.0100004,0.0126005 0.025801,0.0189007 0.0479018,0.0189007 0.027401,0 0.0479018,-0.00740028 0.0612023,-0.0222008 0.0135005,-0.0146006 0.0246009,-0.0435016 0.0335013,-0.0866033l0.0938035 -0.447217 0.154706 0 -0.0892034 0.425316c-0.0211008,0.100104 -0.051902,0.168306 -0.0923035,0.204808 -0.0403015,0.0364014 -0.0987037,0.0546021 -0.175007,0.0546021 -0.0672025,0 -0.117504,-0.0151006 -0.151106,-0.0451017 -0.0335013,-0.0301011 -0.0503019,-0.0731028 -0.0503019,-0.129305 0,-0.00950036 0.00080003,-0.0223008 0.00220008,-0.0385015 0.00160006,-0.0161006 0.00370014,-0.0332013 0.00650025,-0.0511019zm0.901434 -0.159006l0.320612 0 -0.025201 0.129605 -0.322312 0 -0.0300011 0.145506 0.372014 0 -0.026501 0.129305 -0.52762 0 0.139105 -0.666125 0.51892 0 -0.026001 0.129205 -0.365814 0 -0.027201 0.132505zm0.984437 0.169806l0.153806 0c-0.0192007,0.0739028 -0.0573022,0.134705 -0.114404,0.182107 -0.0570022,0.0475018 -0.130105,0.0711027 -0.219208,0.0711027 -0.0918035,0 -0.160706,-0.0251009 -0.206608,-0.0750028 -0.0458017,-0.0500019 -0.0688026,-0.115204 -0.0688026,-0.195507 0,-0.116804 0.0327012,-0.218208 0.0979037,-0.304212 0.0652025,-0.0860033 0.159506,-0.129005 0.282311,-0.129005 0.0903034,0 0.157406,0.0171006 0.201308,0.0514019 0.0440017,0.0341013 0.0661025,0.0828031 0.0661025,0.145706 0,0.0117004 -0.000400015,0.0212008 -0.00080003,0.0285011 -0.000500019,0.00730028 -0.00120005,0.0140005 -0.00210008,0.0199008l-0.152806 0c0.000300011,-0.0026001 0.000500019,-0.0053002 0.000600023,-0.00830031 0.000200008,-0.00290011 0.000300011,-0.00680026 0.000300011,-0.0117004 0,-0.0319012 -0.0106004,-0.0561021 -0.0315012,-0.0721027 -0.0211008,-0.0162006 -0.0499019,-0.0243009 -0.0865033,-0.0243009 -0.0624024,0 -0.112204,0.0281011 -0.149306,0.0843032 -0.0373014,0.0560021 -0.0559021,0.121405 -0.0559021,0.196107 0,0.0560021 0.0113004,0.0976037 0.0338013,0.124705 0.0225009,0.027201 0.052402,0.0408015 0.0895034,0.0408015 0.0390015,0 0.0719027,-0.0101004 0.0984037,-0.0303011 0.026601,-0.0201008 0.0479018,-0.051602 0.0639024,-0.0942036zm0.577222 -0.302311l-0.198207 0 0.0279011 -0.129205 0.550021 0 -0.027401 0.129205 -0.197807 0 -0.111004 0.53692 -0.154806 0 0.111304 -0.53692z"/>
  <path class="fil1" d="M7.8846 0.820831c-0.171006,0.138305 -0.545721,0.0242009 -0.79803,-0.0388015 -0.25301,-0.0631024 -0.507119,-0.146606 -0.708327,-0.132405 -0.27671,-0.00240009 -0.54022,0.0106004 -0.813131,0.0407015 -0.0700026,0.0078003 -0.0820031,0.0127005 -0.00770029,-0.0156006 0.292211,-0.111404 0.542921,-0.144705 0.861233,-0.148906 -0.381214,-0.202708 -0.696626,-0.375814 -1.12884,-0.418516 -0.496119,-0.0491019 -1.25955,-0.0503019 -1.49086,-0.0079003 -0.155306,0.0284011 -0.170906,0.0436016 -0.27181,0.155906 -0.114904,0.127905 -0.225609,0.26021 -0.341113,0.387915 -0.0407015,0.0481018 -0.0513019,0.052102 0.00860033,0.0560021 0.454717,0.0297011 0.945136,0.131805 1.35285,0.228309l0.00080003 0.00340013c-0.453017,-0.0633024 -0.904734,-0.116104 -1.35685,-0.152706 -0.729028,-0.0592022 -1.45916,-0.0765029 -2.19828,-0.0286011 -0.26711,0.0173007 -0.53432,0.0426016 -0.80163,0.0874033 -0.0236009,0.00400015 -0.027201,0.00580022 -0.00280011,-0.00500019 0.053302,-0.0236009 0.111104,-0.0444017 0.173407,-0.0626024 0.347813,-0.101704 0.835832,-0.126505 1.48246,-0.155106 0.419316,-0.0185007 0.842932,-0.000700026 1.27565,0.0164006l0.323012 -0.364314 -0.455817 0.317012c-0.00730028,0.00510019 -0.0308012,0.025201 -0.0118004,0.0052002 0.00290011,-0.00290011 0.00570022,-0.00590022 0.00860033,-0.00890034 0.27041,-0.280911 0.495119,-0.448317 0.649325,-0.515119 0.080503,-0.0349013 0.301711,-0.0558021 0.51822,-0.0613023 0.289211,-0.00730028 0.596623,-0.00100004 0.896334,0.0053002 0.611323,0.0127005 0.891534,0.166606 1.38315,0.372514l0.452817 0.198308 0.331913 0.141205 0.163906 0.0510019c0.110104,0.0332013 0.231309,0.0438017 0.334713,0.0237009 0.0600023,-0.0116004 0.113504,-0.0348013 0.113804,-0.0650025 0.000100004,-0.0158006 -0.0101004,-0.025301 -0.0382014,-0.0310012 -0.0558021,-0.0114004 -0.0911034,0.000700026 -0.109504,0.0298011 -0.0142005,0.0224008 -0.0383014,0.0238009 -0.0614023,0.0224008 -0.0333013,-0.00210008 -0.0551021,-0.0406015 -0.0886034,-0.0607023 -0.0245009,-0.0147006 -0.0996038,-0.00920035 -0.0899034,0.0344013 0.00700026,0.0315012 -0.0194007,0.0301011 -0.027301,0.0135005 -0.0230009,-0.0483018 0.0415016,-0.079703 0.079303,-0.080103 0.0409015,-0.000400015 0.0624024,0.0102004 0.079403,0.0286011 0.026601,0.0289011 0.0558021,0.053202 0.0892034,0.0106004 0.0418016,-0.053302 0.193407,-0.0431016 0.241909,-0.0128005 0.0384015,0.0240009 0.0415016,0.0871033 -0.0187007,0.135805z"/>
  <g id="_125301560">
   <g>
    <path id="_379520176" class="fil2" d="M1.46126 1.10374c0.299811,0 0.542921,0.243109 0.542921,0.542921 0,0.0103004 -0.000300011,0.0205008 -0.000900034,0.0307012 -0.0159006,-0.285511 -0.25251,-0.512219 -0.542021,-0.512219 -0.289411,0 -0.52602,0.226709 -0.542021,0.512219 -0.000500019,-0.0102004 -0.00080003,-0.0204008 -0.00080003,-0.0307012 0,-0.299811 0.243109,-0.542921 0.542821,-0.542921z"/>
    <path id="_126088944" class="fil2" d="M1.46126 2.18298c-0.119705,0 -0.26481,-0.0332013 -0.329512,-0.141505 0.0915035,0.0633024 0.205708,0.100904 0.329512,0.100904 0.123905,0 0.238109,-0.0376014 0.329612,-0.100904 -0.0647024,0.108304 -0.209808,0.141505 -0.329612,0.141505z"/>
   </g>
   <g>
    <path id="_126088416" class="fil2" d="M1.58486 1.75357c-0.0300011,0.0346013 -0.0742028,0.0565021 -0.123605,0.0565021 -0.0493019,0 -0.0936035,-0.0219008 -0.123505,-0.0565021l0.0349013 -0.0202008c0.0225009,0.0231009 0.053902,0.0374014 0.0886034,0.0374014 0.0348013,0 0.0662025,-0.0143005 0.0887034,-0.0374014l0.0349013 0.0202008z"/>
    <path id="_126089160" class="fil2" d="M1.24595 2.02388l0.0476018 -0.079903c-0.026501,-0.0149006 -0.0514019,-0.0336013 -0.0739028,-0.0561021 -0.0216008,-0.0217008 -0.0398015,-0.0456017 -0.0544021,-0.0709027l-0.080503 0.0465018c0.0186007,0.0322012 0.0416016,0.0625024 0.0692026,0.0901034 0.0281011,0.0281011 0.0591022,0.0515019 0.0920035,0.0703027zm0.593622 -0.160806l-0.079903 -0.0476018c-0.0149006,0.026401 -0.0336013,0.0513019 -0.0561021,0.0739028 -0.0217008,0.0216008 -0.0455017,0.0397015 -0.0708027,0.0544021l0.0464018 0.080503c0.0322012,-0.0186007 0.0626024,-0.0417016 0.0901034,-0.0692026 0.0281011,-0.0281011 0.0515019,-0.0591022 0.0703027,-0.0920035zm-0.26351 0.203308l-0.0228009 -0.0901034c-0.0293011,0.00810031 -0.0601023,0.0125005 -0.0920035,0.0125005 -0.0306012,0 -0.0603023,-0.00400015 -0.0885033,-0.0116004l-0.0241009 0.0898034c0.0359014,0.00960036 0.0737028,0.0148006 0.112604,0.0148006 0.0398015,0 0.078203,-0.0054002 0.114804,-0.0154006z"/>
   </g>
  </g>
  <g id="_379526512">
   <path id="_125438968" class="fil3" d="M5.13159 0.226509c-0.344613,-0.0150006 -0.615123,-0.0491019 -0.925935,-0.026701 -0.180907,0.0131005 -0.301611,0.0288011 -0.422016,0.161206 -0.25941,0.284911 -0.191407,0.244909 -0.0718027,0.245109l1.25215 0.0184007 0.0390015 0.0230009 -1.34625 0.0207008c-0.212508,0.00220008 -0.0964036,-0.114104 -0.027601,-0.218308l0.151606 -0.174607c0.0714027,-0.0652025 0.160306,-0.147906 0.601223,-0.128205 0.25831,0.0116004 0.52962,0.0417016 0.745828,0.0659025 0.026501,0.00290011 0.0165006,0.0154006 0.00380014,0.0135005z"/>
   <g>
    <path id="_379533664" class="fil2" d="M1.11164 0.877833c-0.242009,0.0129005 -0.483918,0.0298011 -0.721727,0.0818031 -0.0628024,0.0137005 -0.122305,0.027401 -0.173407,0.053502 -0.120605,0.0618023 -0.079103,0.164706 0.0231009,0.173807 0.0989037,0.00880033 0.25591,0.0225009 0.405715,0.0108004 0.0611023,-0.00480018 0.102904,-0.0472018 0.156106,-0.0755029 0.0581022,-0.0309012 0.125505,-0.053202 0.190407,-0.0637024 0.0440017,-0.00720027 0.0357014,0.00640024 0.0052002,0.0251009 -0.0150006,0.00910034 -0.0194007,0.00860033 -0.0337013,0.0174007 -0.222108,0.137105 -0.326012,0.316712 -0.345713,0.548121 -0.00170006,0.0206008 -0.00330012,0.0395015 -0.00490019,0.0569022 -0.119605,0.00150006 -0.211708,0.0105004 -0.211708,0.0213008 0,0.0107004 0.0898034,0.0196007 0.207408,0.0213008 -0.00570022,0.0466018 -0.0134005,0.079403 -0.0302011,0.102204 -0.0285011,0.0386015 -0.0832031,0.0482018 -0.197707,0.0475018l-0.137305 -0.00320012 0 -0.0479018c0.0511019,-0.00770029 0.0867033,-0.0162006 0.105504,-0.0318012 0.0207008,-0.0173007 0.0282011,-0.0388015 -0.0121005,-0.079703 -0.0347013,-0.0353013 -0.079103,-0.0822031 -0.131305,-0.137405 -0.105204,-0.111104 -0.200208,-0.188207 -0.204708,-0.291111 -0.00170006,-0.0380014 0.000400015,-0.0847032 0.00190007,-0.132005 0.00230009,-0.0738028 0.00910034,-0.0708027 0.0676026,-0.108804 0.0370014,-0.0241009 0.0775029,-0.0432016 0.0921035,-0.0862033 0.00490019,-0.0145005 0.00650025,-0.025501 0.0111004,-0.0337013 0.00460017,-0.00820031 0.0123005,-0.0136005 0.0294011,-0.0172007 0.27021,-0.0560021 0.493819,-0.0672025 0.768829,-0.0723027l0.136205 0.00230009c0.0415016,0.000700026 0.0498019,0.0161006 0.00390015,0.0185007z"/>
    <path id="_379527160" class="fil2" d="M1.92617 1.11094c0.418216,-0.0242009 0.836332,-0.0515019 1.25525,-0.0612023 0.563221,-0.0131005 1.12554,0.000100004 1.69286,0.054102 0.772329,0.0735028 0.52332,0.0848032 -0.0165006,0.0515019 -0.181807,-0.0112004 -0.376314,-0.0212008 -0.576822,-0.0293011 -0.601323,-0.0241009 -1.25875,-0.0129005 -1.80507,0.196007 -0.183507,0.0702027 -0.379814,0.287411 -0.419316,0.497219l-0.00820031 -0.000200008 -0.00200008 0.00660025 0.0119005 -0.0449017c0.00160006,-0.00720027 0.00310012,-0.0145005 0.00450017,-0.0218008l0.000200008 -0.00120005 0.000300011 -0.00150006 0.000200008 -0.00120005 0.000200008 -0.00140005 0.000300011 -0.00140005 0.000200008 -0.00130005 0.000300011 -0.00150006 0.000200008 -0.00120005 0.000200008 -0.00160006 0.000200008 -0.00110004 0.000300011 -0.00170006 0.000100004 -0.00100004 0.000500019 -0.0027001 0.000300011 -0.00190007 0.000100004 -0.00080003 0.000300011 -0.00200008 0.000100004 -0.000700026 0.000300011 -0.00210008 0.000100004 -0.000500019 0.000300011 -0.00280011 0.000300011 -0.00230009 0.000100004 -0.000400015 0.000300011 -0.00240009 0 -0.000300011 0.000400015 -0.0026001 0 -0.000100004 0.000300011 -0.0027001 0 0 0.000300011 -0.0027001 0 -0.000100004 0.000300011 -0.0027001 0 -0.000200008 0.000300011 -0.00250009 0 -0.000300011 0.000300011 -0.00240009 0 -0.000400015 0.000200008 -0.00240009 0.000100004 -0.000500019 0.000200008 -0.00220008 0.000100004 -0.000600023 0.000100004 -0.00210008 0.000100004 -0.00080003 0.000200008 -0.00200008 0 -0.000900034 0.000200008 -0.00190007 0.000100004 -0.000900034 0.000100004 -0.00180007 0.000100004 -0.00110004 0.000100004 -0.00170006 0.000100004 -0.00120005 0.000100004 -0.00150006 0.000100004 -0.00130005 0 -0.00150006 0.000100004 -0.00140005 0.000100004 -0.00140005 0.000100004 -0.00150006 0 -0.00120005 0.000100004 -0.00170006 0.000100004 -0.00110004 0 -0.00180007 0.000100004 -0.00100004 0.000100004 -0.00190007 0 -0.000900034 0.000100004 -0.00200008 0 -0.000700026 0.000100004 -0.00220008 0 -0.000600023 0 -0.00230009 0 -0.000500019 0.000100004 -0.00240009 0 -0.000400015 0 -0.00250009 0 -0.000300011 0.000100004 -0.0026001 0 -0.000200008 0 -0.0027001 0 -0.000100004 0 -0.00280011c0,-0.00510019 -0.000100004,-0.0101004 -0.000200008,-0.0152006l0 -0.00150006c-0.000200008,-0.00480018 -0.000400015,-0.00970037 -0.000600023,-0.0145005l0 -0.000400015c-0.000300011,-0.00490019 -0.000600023,-0.00970037 -0.000900034,-0.0145005l-0.000100004 -0.00100004 -0.000100004 -0.000900034c-0.000300011,-0.00460017 -0.000700026,-0.00920035 -0.00120005,-0.0137005l-0.000200008 -0.00180007c-0.000400015,-0.00440017 -0.000900034,-0.00880033 -0.00150006,-0.0132005l-0.000100004 -0.00120005 -0.000100004 -0.000600023c-0.000600023,-0.00470018 -0.00130005,-0.00950036 -0.00200008,-0.0143005l-0.000200008 -0.00110004c-0.000700026,-0.00460017 -0.00150006,-0.00930035 -0.00230009,-0.0139005l-0.000100004 -0.000900034c-0.000900034,-0.00470018 -0.00180007,-0.00950036 -0.00280011,-0.0142005l0 -0.000400015 -0.000200008 -0.00100004c-0.000900034,-0.00400015 -0.00170006,-0.0080003 -0.0026001,-0.0119005l-0.00100004 -0.00400015 -0.0026001 -0.0107004 -0.00080003 -0.00320012c-0.00110004,-0.00410016 -0.00210008,-0.00810031 -0.00330012,-0.0122005l-0.00110004 -0.00370014 -0.00280011 -0.00960036 -0.00130005 -0.00410016c-0.00110004,-0.00350013 -0.00220008,-0.00700026 -0.00340013,-0.0105004l-0.00140005 -0.00420016c-0.00120005,-0.00350013 -0.00240009,-0.00700026 -0.00370014,-0.0104004l-0.00130005 -0.00360014 -0.00370014 -0.00970037 -0.00140005 -0.00360014 -0.00400015 -0.00970037 -0.00220008 -0.0053002 -0.00410016 -0.00930035 -0.00180007 -0.00390015 -0.00380014 -0.00830031 -0.00300011 -0.00620023 -0.00360014 -0.00720027 -0.0027001 -0.0053002 -0.00430016 -0.00810031 -0.00330012 -0.00600023 -0.00310012 -0.00560021 -0.00420016 -0.00730028 -0.00320012 -0.00550021 -0.00400015 -0.00650025 -0.000100004 -0.000200008 -0.00330012 -0.0053002 -0.000600023 -0.00100004 -0.00430016 -0.00670025 -0.00410016 -0.00620023 -0.00380014 -0.00560021 -0.00080003 -0.00120005 -0.00350013 -0.00500019 0 -0.000100004 -0.00360014 -0.00500019 -0.00360014 -0.00500019 -0.000700026 -0.000900034 -0.00480018 -0.00640024 -0.00490019 -0.00640024 -0.00080003 -0.00100004 0 0c-0.111904,-0.143605 -0.286511,-0.235909 -0.482618,-0.235909 -0.337813,0 -0.611723,0.27401 -0.611723,0.611823 0,0.134105 0.0432016,0.25811 0.116504,0.359014 -0.0957036,0.00280011 -0.198007,0.000200008 -0.297411,-0.000500019 -0.0922035,-0.00590022 -0.0644024,-0.079403 0.00500019,-0.117204 0.0822031,-0.0448017 0.102304,-0.108404 0.102004,-0.182407 -0.000400015,-0.107004 0.00580022,-0.186507 0.0437017,-0.291311 0.0951036,-0.26251 0.346713,-0.450117 0.641924,-0.450117 0.178107,0 0.340213,0.0682026 0.461717,0.179907l-0.000300011 -0.00170006c0.0898034,0.0836032 0.153906,0.191407 0.180207,0.312112 0.00200008,0.00930035 0.00720027,0.0128005 0.00630024,0.000400015 -0.00720027,-0.0950036 -0.0396015,-0.168506 -0.0959036,-0.245709 -0.025801,-0.0355013 -0.0550021,-0.0684026 -0.0871033,-0.0982037z"/>
   </g>
  </g>
 </g>
</svg>
